<svg width="300" height="300" viewBox="0 0 300 300" fill="none" xmlns="http://www.w3.org/2000/svg">
<rect width="300" height="300" fill="#19222D"/>
<g filter="url(#filter0_d_28_6)">
<path d="M108.561 165.073V160.195H113.439V165.073H108.561ZM108.561 169.951V165.073H113.439V169.951H108.561ZM113.439 169.951V165.073H118.317V169.951H113.439ZM118.317 169.951V165.073H123.195V169.951H118.317ZM123.195 169.951V165.073H128.073V169.951H123.195ZM123.195 165.073V160.195H128.073V165.073H123.195ZM128.073 165.073V160.195H132.951V165.073H128.073ZM118.317 165.073V160.195H123.195V165.073H118.317ZM113.439 165.073V160.195H118.317V165.073H113.439ZM128.073 169.951V165.073H132.951V169.951H128.073ZM128.073 174.829V169.951H132.951V174.829H128.073ZM123.195 174.829V169.951H128.073V174.829H123.195ZM118.317 174.829V169.951H123.195V174.829H118.317ZM113.439 174.829V169.951H118.317V174.829H113.439ZM113.439 179.707V174.829H118.317V179.707H113.439ZM118.317 179.707V174.829H123.195V179.707H118.317ZM123.195 179.707V174.829H128.073V179.707H123.195ZM128.073 179.707V174.829H132.951V179.707H128.073ZM132.951 179.707V174.829H137.829V179.707H132.951ZM132.951 174.829V169.951H137.829V174.829H132.951ZM128.073 184.585V179.707H132.951V184.585H128.073ZM123.195 184.585V179.707H128.073V184.585H123.195ZM118.317 184.585V179.707H123.195V184.585H118.317ZM118.317 189.463V184.585H123.195V189.463H118.317ZM123.195 189.463V184.585H128.073V189.463H123.195ZM128.073 189.463V184.585H132.951V189.463H128.073ZM132.951 189.463V184.585H137.829V189.463H132.951ZM132.951 184.585V179.707H137.829V184.585H132.951ZM137.829 184.585V179.707H142.707V184.585H137.829ZM137.829 189.463V184.585H142.707V189.463H137.829ZM128.073 194.341V189.463H132.951V194.341H128.073ZM123.195 194.341V189.463H128.073V194.341H123.195ZM123.195 199.22V194.341H128.073V199.22H123.195ZM128.073 199.22V194.341H132.951V199.22H128.073ZM132.951 199.22V194.341H137.829V199.22H132.951ZM137.829 199.22V194.341H142.707V199.22H137.829ZM142.707 199.22V194.341H147.585V199.22H142.707ZM142.707 194.341V189.463H147.585V194.341H142.707ZM137.829 194.341V189.463H142.707V194.341H137.829ZM132.951 194.341V189.463H137.829V194.341H132.951ZM137.829 204.098V199.22H142.707V204.098H137.829ZM142.707 204.098V199.22H147.585V204.098H142.707ZM142.707 208.976V204.098H147.585V208.976H142.707ZM137.829 208.976V204.098H142.707V208.976H137.829ZM132.951 208.976V204.098H137.829V208.976H132.951ZM128.073 208.976V204.098H132.951V208.976H128.073ZM128.073 204.098V199.22H132.951V204.098H128.073ZM132.951 204.098V199.22H137.829V204.098H132.951ZM147.585 204.098V199.22H152.463V204.098H147.585ZM152.463 204.098V199.22H157.341V204.098H152.463ZM152.463 208.976V204.098H157.341V208.976H152.463ZM157.341 208.976V204.098H162.22V208.976H157.341ZM147.585 208.976V204.098H152.463V208.976H147.585ZM157.341 204.098V199.22H162.22V204.098H157.341ZM157.341 199.22V194.341H162.22V199.22H157.341ZM176.854 184.585V179.707H181.732V184.585H176.854ZM176.854 189.463V184.585H181.732V189.463H176.854ZM171.976 189.463V184.585H176.854V189.463H171.976ZM167.098 194.341V189.463H171.976V194.341H167.098ZM162.22 194.341V189.463H167.098V194.341H162.22ZM157.341 194.341V189.463H162.22V194.341H157.341ZM167.098 189.463V184.585H171.976V189.463H167.098ZM171.976 184.585V179.707H176.854V184.585H171.976ZM167.098 184.585V179.707H171.976V184.585H167.098ZM162.22 184.585V179.707H167.098V184.585H162.22ZM162.22 189.463V184.585H167.098V189.463H162.22ZM171.976 179.707V174.829H176.854V179.707H171.976ZM167.098 179.707V174.829H171.976V179.707H167.098ZM167.098 174.829V169.951H171.976V174.829H167.098ZM171.976 174.829V169.951H176.854V174.829H171.976ZM171.976 169.951V165.073H176.854V169.951H171.976ZM176.854 169.951V165.073H181.732V169.951H176.854ZM176.854 165.073V160.195H181.732V165.073H176.854ZM171.976 165.073V160.195H176.854V165.073H171.976ZM181.732 165.073V160.195H186.61V165.073H181.732ZM186.61 165.073V160.195H191.488V165.073H186.61ZM186.61 169.951V165.073H191.488V169.951H186.61ZM191.488 169.951V165.073H196.366V169.951H191.488ZM191.488 165.073V160.195H196.366V165.073H191.488ZM186.61 174.829V169.951H191.488V174.829H186.61ZM186.61 179.707V174.829H191.488V179.707H186.61ZM181.732 179.707V174.829H186.61V179.707H181.732ZM181.732 174.829V169.951H186.61V174.829H181.732ZM181.732 169.951V165.073H186.61V169.951H181.732ZM176.854 174.829V169.951H181.732V174.829H176.854ZM181.732 184.585V179.707H186.61V184.585H181.732ZM176.854 179.707V174.829H181.732V179.707H176.854ZM181.732 189.463V184.585H186.61V189.463H181.732ZM176.854 194.341V189.463H181.732V194.341H176.854ZM176.854 199.22V194.341H181.732V199.22H176.854ZM171.976 199.22V194.341H176.854V199.22H171.976ZM171.976 194.341V189.463H176.854V194.341H171.976ZM171.976 204.098V199.22H176.854V204.098H171.976ZM171.976 208.976V204.098H176.854V208.976H171.976ZM167.098 208.976V204.098H171.976V208.976H167.098ZM162.22 208.976V204.098H167.098V208.976H162.22ZM162.22 204.098V199.22H167.098V204.098H162.22ZM162.22 199.22V194.341H167.098V199.22H162.22ZM167.098 199.22V194.341H171.976V199.22H167.098ZM167.098 204.098V199.22H171.976V204.098H167.098ZM132.951 213.854V208.976H137.829V213.854H132.951ZM132.951 218.732V213.854H137.829V218.732H132.951ZM137.829 218.732V213.854H142.707V218.732H137.829ZM137.829 223.61V218.732H142.707V223.61H137.829ZM137.829 228.488V223.61H142.707V228.488H137.829ZM142.707 228.488V223.61H147.585V228.488H142.707ZM142.707 233.366V228.488H147.585V233.366H142.707ZM142.707 238.244V233.366H147.585V238.244H142.707ZM147.585 238.244V233.366H152.463V238.244H147.585ZM152.463 238.244V233.366H157.341V238.244H152.463ZM157.341 238.244V233.366H162.22V238.244H157.341ZM157.341 233.366V228.488H162.22V233.366H157.341ZM152.463 233.366V228.488H157.341V233.366H152.463ZM147.585 233.366V228.488H152.463V233.366H147.585ZM152.463 228.488V223.61H157.341V228.488H152.463ZM157.341 228.488V223.61H162.22V228.488H157.341ZM162.22 228.488V223.61H167.098V228.488H162.22ZM162.22 223.61V218.732H167.098V223.61H162.22ZM162.22 218.732V213.854H167.098V218.732H162.22ZM167.098 218.732V213.854H171.976V218.732H167.098ZM167.098 213.854V208.976H171.976V213.854H167.098ZM162.22 213.854V208.976H167.098V213.854H162.22ZM157.341 213.854V208.976H162.22V213.854H157.341ZM157.341 218.732V213.854H162.22V218.732H157.341ZM157.341 223.61V218.732H162.22V223.61H157.341ZM152.463 223.61V218.732H157.341V223.61H152.463ZM147.585 228.488V223.61H152.463V228.488H147.585ZM147.585 223.61V218.732H152.463V223.61H147.585ZM147.585 218.732V213.854H152.463V218.732H147.585ZM152.463 218.732V213.854H157.341V218.732H152.463ZM147.585 213.854V208.976H152.463V213.854H147.585ZM142.707 213.854V208.976H147.585V213.854H142.707ZM137.829 213.854V208.976H142.707V213.854H137.829ZM142.707 218.732V213.854H147.585V218.732H142.707ZM142.707 223.61V218.732H147.585V223.61H142.707ZM152.463 213.854V208.976H157.341V213.854H152.463ZM108.561 135.71H113.439V140.588H108.561V135.71ZM108.561 130.832H113.439V135.71H108.561V130.832ZM113.439 130.832H118.317L118.317 135.71H113.439V130.832ZM118.317 130.832H123.195L123.195 135.71H118.317L118.317 130.832ZM123.195 130.832H128.073V135.71H123.195L123.195 130.832ZM123.195 135.71H128.073V140.588H123.195V135.71ZM128.073 135.71H132.951V140.588H128.073V135.71ZM118.317 135.71H123.195V140.588H118.317V135.71ZM113.439 135.71H118.317V140.588H113.439V135.71ZM128.073 130.832H132.951V135.71H128.073V130.832ZM128.073 125.954H132.951V130.832H128.073V125.954ZM123.195 125.954H128.073V130.832H123.195V125.954ZM118.317 125.954H123.195V130.832H118.317V125.954ZM113.439 125.954H118.317V130.832H113.439V125.954ZM113.439 121.075H118.317V125.954H113.439V121.075ZM118.317 121.075H123.195V125.954H118.317V121.075ZM123.195 121.075H128.073V125.954H123.195V121.075ZM128.073 121.075H132.951V125.954H128.073V121.075ZM132.951 121.075H137.829V125.954H132.951V121.075ZM132.951 125.954H137.829V130.832H132.951V125.954ZM128.073 116.197H132.951V121.075H128.073V116.197ZM123.195 116.197H128.073V121.075H123.195V116.197ZM118.317 116.197H123.195V121.075H118.317V116.197ZM118.317 111.319H123.195V116.197H118.317V111.319ZM123.195 111.319H128.073V116.197H123.195V111.319ZM128.073 111.319H132.951V116.197H128.073V111.319ZM132.951 111.319H137.829V116.197H132.951V111.319ZM132.951 116.197H137.829V121.075H132.951V116.197ZM137.829 116.197H142.707V121.075H137.829V116.197ZM137.829 111.319H142.707V116.197H137.829V111.319ZM128.073 106.441H132.951V111.319H128.073V106.441ZM123.195 106.441H128.073V111.319H123.195V106.441ZM123.195 101.563H128.073V106.441H123.195V101.563ZM128.073 101.563H132.951V106.441H128.073V101.563ZM132.951 101.563H137.829V106.441H132.951V101.563ZM137.829 101.563H142.707V106.441H137.829V101.563ZM142.707 101.563H147.585V106.441H142.707V101.563ZM142.707 106.441H147.585V111.319H142.707V106.441ZM137.829 106.441H142.707V111.319H137.829V106.441ZM132.951 106.441H137.829V111.319H132.951V106.441ZM137.829 96.6852H142.707V101.563H137.829V96.6852ZM142.707 96.6852H147.585V101.563H142.707V96.6852ZM142.707 91.8072H147.585V96.6852H142.707V91.8072ZM137.829 91.8072H142.707V96.6852H137.829V91.8072ZM132.951 91.8072H137.829V96.6852H132.951V91.8072ZM128.073 91.8072H132.951V96.6852H128.073V91.8072ZM128.073 96.6852H132.951V101.563H128.073V96.6852ZM132.951 96.6852H137.829V101.563H132.951V96.6852ZM147.585 96.6852H152.463V101.563H147.585V96.6852ZM152.463 96.6852H157.341V101.563H152.463V96.6852ZM152.463 91.8072H157.341V96.6852H152.463V91.8072ZM157.341 91.8072H162.22V96.6852H157.341V91.8072ZM147.585 91.8072H152.463V96.6852H147.585V91.8072ZM157.341 96.6852H162.22V101.563H157.341V96.6852ZM157.341 101.563H162.22V106.441H157.341V101.563ZM176.854 116.197H181.732V121.075H176.854V116.197ZM176.854 111.319H181.732V116.197H176.854V111.319ZM171.976 111.319H176.854V116.197H171.976V111.319ZM167.098 106.441H171.976V111.319H167.098V106.441ZM162.22 106.441H167.098V111.319H162.22V106.441ZM157.341 106.441H162.22V111.319H157.341V106.441ZM167.098 111.319H171.976V116.197H167.098V111.319ZM171.976 116.197H176.854V121.075H171.976V116.197ZM167.098 116.197H171.976V121.075H167.098V116.197ZM162.22 116.197H167.098V121.075L162.22 121.075V116.197ZM162.22 111.319H167.098V116.197H162.22V111.319ZM171.976 121.075H176.854V125.954H171.976V121.075ZM167.098 121.075H171.976V125.954H167.098V121.075ZM167.098 125.954H171.976V130.832H167.098V125.954ZM171.976 125.954H176.854V130.832H171.976V125.954ZM171.976 130.832H176.854V135.71H171.976V130.832ZM176.854 130.832H181.732V135.71H176.854V130.832ZM176.854 135.71H181.732V140.588H176.854V135.71ZM171.976 135.71H176.854V140.588H171.976V135.71ZM181.732 135.71H186.61V140.588H181.732V135.71ZM186.61 135.71H191.488V140.588H186.61V135.71ZM186.61 130.832H191.488V135.71H186.61V130.832ZM191.488 130.832H196.366V135.71H191.488V130.832ZM191.488 135.71H196.366V140.588H191.488V135.71ZM186.61 125.954H191.488V130.832H186.61V125.954ZM186.61 121.075H191.488V125.954H186.61V121.075ZM181.732 121.075H186.61V125.954H181.732V121.075ZM181.732 125.954H186.61V130.832H181.732V125.954ZM181.732 130.832H186.61V135.71H181.732V130.832ZM176.854 125.954H181.732V130.832H176.854V125.954ZM181.732 116.197H186.61V121.075H181.732V116.197ZM176.854 121.075H181.732V125.954H176.854V121.075ZM181.732 111.319H186.61V116.197H181.732V111.319ZM176.854 106.441H181.732V111.319H176.854V106.441ZM176.854 101.563H181.732V106.441H176.854V101.563ZM171.976 101.563H176.854V106.441H171.976V101.563ZM171.976 106.441H176.854V111.319H171.976V106.441ZM171.976 96.6852H176.854V101.563H171.976V96.6852ZM171.976 91.8072H176.854V96.6852H171.976V91.8072ZM167.098 91.8072H171.976V96.6852H167.098V91.8072ZM162.22 91.8072H167.098V96.6852H162.22V91.8072ZM162.22 96.6852H167.098V101.563H162.22V96.6852ZM162.22 101.563H167.098V106.441H162.22V101.563ZM167.098 101.563H171.976V106.441H167.098V101.563ZM167.098 96.6852H171.976V101.563H167.098V96.6852ZM132.951 86.9291H137.829V91.8072H132.951V86.9291ZM132.951 82.0511H137.829V86.9291H132.951V82.0511ZM137.829 82.0511H142.707V86.9291H137.829V82.0511ZM137.829 77.173H142.707V82.0511H137.829V77.173ZM137.829 72.295H142.707V77.173H137.829V72.295ZM142.707 72.295H147.585V77.173H142.707V72.295ZM142.707 67.4169H147.585V72.295H142.707V67.4169ZM142.707 62.5389H147.585V67.4169H142.707V62.5389ZM147.585 62.5389H152.463V67.4169H147.585V62.5389ZM152.463 62.5389H157.341V67.4169H152.463V62.5389ZM157.341 62.5389H162.22V67.4169H157.341V62.5389ZM157.341 67.4169H162.22V72.295H157.341V67.4169ZM152.463 67.4169H157.341V72.295H152.463V67.4169ZM147.585 67.4169H152.463V72.295H147.585V67.4169ZM152.463 72.295H157.341V77.173H152.463V72.295ZM157.341 72.295H162.22V77.173H157.341V72.295ZM162.22 72.295H167.098V77.173H162.22V72.295ZM162.22 77.173H167.098V82.0511H162.22V77.173ZM162.22 82.0511H167.098V86.9291H162.22V82.0511ZM167.098 82.0511H171.976V86.9291H167.098V82.0511ZM167.098 86.9291H171.976V91.8072H167.098V86.9291ZM162.22 86.9291H167.098V91.8072H162.22V86.9291ZM157.341 86.9291H162.22V91.8072H157.341V86.9291ZM157.341 82.0511H162.22V86.9291H157.341V82.0511ZM157.341 77.173H162.22V82.0511H157.341V77.173ZM152.463 77.173H157.341V82.0511H152.463V77.173ZM147.585 72.295H152.463V77.173H147.585V72.295ZM147.585 77.173H152.463V82.0511H147.585V77.173ZM147.585 82.0511H152.463V86.9291H147.585V82.0511ZM152.463 82.0511H157.341V86.9291H152.463V82.0511ZM147.585 86.9291H152.463V91.8072H147.585V86.9291ZM142.707 86.9291H147.585V91.8072H142.707V86.9291ZM137.829 86.9291H142.707V91.8072H137.829V86.9291ZM142.707 82.0511H147.585V86.9291H142.707V82.0511ZM142.707 77.173H147.585V82.0511H142.707V77.173ZM152.463 86.9291H157.341V91.8072H152.463V86.9291Z" fill="white"/>
</g>
<defs>
<filter id="filter0_d_28_6" x="104.561" y="62.5389" width="95.8047" height="183.705" filterUnits="userSpaceOnUse" color-interpolation-filters="sRGB">
<feFlood flood-opacity="0" result="BackgroundImageFix"/>
<feColorMatrix in="SourceAlpha" type="matrix" values="0 0 0 0 0 0 0 0 0 0 0 0 0 0 0 0 0 0 127 0" result="hardAlpha"/>
<feOffset dy="4"/>
<feGaussianBlur stdDeviation="2"/>
<feComposite in2="hardAlpha" operator="out"/>
<feColorMatrix type="matrix" values="0 0 0 0 1 0 0 0 0 0 0 0 0 0 0 0 0 0 0.25 0"/>
<feBlend mode="normal" in2="BackgroundImageFix" result="effect1_dropShadow_28_6"/>
<feBlend mode="normal" in="SourceGraphic" in2="effect1_dropShadow_28_6" result="shape"/>
</filter>
</defs>
</svg>
