<svg width="235" height="127" viewBox="0 0 235 127" fill="none" xmlns="http://www.w3.org/2000/svg">
<path d="M104.488 61.439V63H102.927V61.439H104.488ZM104.488 59.878V61.439H102.927V59.878H104.488ZM104.488 58.3171V59.878H102.927V58.3171H104.488ZM104.488 56.7561V58.3171H102.927V56.7561H104.488ZM104.488 55.1951V56.7561H102.927V55.1951H104.488ZM104.488 53.6341V55.1951H102.927V53.6341H104.488ZM104.488 52.0732V53.6341H102.927V52.0732H104.488ZM104.488 50.5122V52.0732H102.927V50.5122H104.488ZM104.488 48.9512V50.5122H102.927V48.9512H104.488ZM104.488 47.3902V48.9512H102.927V47.3902H104.488ZM104.488 45.8293V47.3902H102.927V45.8293H104.488ZM104.488 44.2683V45.8293H102.927V44.2683H104.488ZM104.488 42.7073V44.2683H102.927V42.7073H104.488ZM104.488 41.1463V42.7073H102.927V41.1463H104.488ZM104.488 39.5854V41.1463H102.927V39.5854H104.488ZM106.049 39.5854V41.1463H104.488V39.5854H106.049ZM106.049 41.1463V42.7073H104.488V41.1463H106.049ZM106.049 42.7073V44.2683H104.488V42.7073H106.049ZM106.049 44.2683V45.8293H104.488V44.2683H106.049ZM106.049 45.8293V47.3902H104.488V45.8293H106.049ZM106.049 47.3902V48.9512H104.488V47.3902H106.049ZM106.049 48.9512V50.5122H104.488V48.9512H106.049ZM107.61 50.5122V52.0732H106.049V50.5122H107.61ZM107.61 52.0732V53.6341H106.049V52.0732H107.61ZM107.61 53.6341V55.1951H106.049V53.6341H107.61ZM107.61 55.1951V56.7561H106.049V55.1951H107.61ZM107.61 56.7561V58.3171H106.049V56.7561H107.61ZM107.61 58.3171V59.878H106.049V58.3171H107.61ZM107.61 59.878V61.439H106.049V59.878H107.61ZM107.61 61.439V63H106.049V61.439H107.61ZM109.171 61.439V63H107.61V61.439H109.171ZM110.732 61.439V63H109.171V61.439H110.732ZM110.732 59.878V61.439H109.171V59.878H110.732ZM110.732 58.3171V59.878H109.171V58.3171H110.732ZM110.732 56.7561V58.3171H109.171V56.7561H110.732ZM110.732 55.1951V56.7561H109.171V55.1951H110.732ZM110.732 53.6341V55.1951H109.171V53.6341H110.732ZM110.732 52.0732V53.6341H109.171V52.0732H110.732ZM110.732 50.5122V52.0732H109.171V50.5122H110.732ZM109.171 50.5122V52.0732H107.61V50.5122H109.171ZM109.171 48.9512V50.5122H107.61V48.9512H109.171ZM109.171 52.0732V53.6341H107.61V52.0732H109.171ZM109.171 53.6341V55.1951H107.61V53.6341H109.171ZM109.171 55.1951V56.7561H107.61V55.1951H109.171ZM109.171 56.7561V58.3171H107.61V56.7561H109.171ZM109.171 58.3171V59.878H107.61V58.3171H109.171ZM109.171 59.878V61.439H107.61V59.878H109.171ZM106.049 61.439V63H104.488V61.439H106.049ZM106.049 59.878V61.439H104.488V59.878H106.049ZM106.049 58.3171V59.878H104.488V58.3171H106.049ZM106.049 56.7561V58.3171H104.488V56.7561H106.049ZM106.049 55.1951V56.7561H104.488V55.1951H106.049ZM106.049 53.6341V55.1951H104.488V53.6341H106.049ZM106.049 52.0732V53.6341H104.488V52.0732H106.049ZM106.049 50.5122V52.0732H104.488V50.5122H106.049ZM104.488 23.9756V25.5366H102.927V23.9756H104.488ZM104.488 25.5366V27.0976H102.927V25.5366H104.488ZM104.488 27.0976V28.6585H102.927V27.0976H104.488ZM104.488 28.6585V30.2195H102.927V28.6585H104.488ZM104.488 30.2195V31.7805H102.927V30.2195H104.488ZM104.488 31.7805V33.3415H102.927V31.7805H104.488ZM104.488 33.3415V34.9024H102.927V33.3415H104.488ZM104.488 34.9024V36.4634H102.927V34.9024H104.488ZM104.488 36.4634V38.0244H102.927V36.4634H104.488ZM104.488 38.0244V39.5854H102.927V38.0244H104.488ZM109.171 23.9756V25.5366H107.61V23.9756H109.171ZM109.171 25.5366V27.0976H107.61V25.5366H109.171ZM109.171 27.0976V28.6585H107.61V27.0976H109.171ZM109.171 28.6585V30.2195H107.61V28.6585H109.171ZM109.171 30.2195V31.7805H107.61V30.2195H109.171ZM109.171 31.7805V33.3415H107.61V31.7805H109.171ZM109.171 34.9024V36.4634H107.61V34.9024H109.171ZM109.171 36.4634V38.0244H107.61V36.4634H109.171ZM109.171 38.0244V39.5854H107.61V38.0244H109.171ZM109.171 39.5854V41.1463H107.61V39.5854H109.171ZM109.171 41.1463V42.7073H107.61V41.1463H109.171ZM109.171 42.7073V44.2683H107.61V42.7073H109.171ZM109.171 44.2683V45.8293H107.61V44.2683H109.171ZM110.732 45.8293V47.3902H109.171V45.8293H110.732ZM110.732 47.3902V48.9512H109.171V47.3902H110.732ZM110.732 48.9512V50.5122H109.171V48.9512H110.732ZM110.732 44.2683V45.8293H109.171V44.2683H110.732ZM110.732 42.7073V44.2683H109.171V42.7073H110.732ZM110.732 41.1463V42.7073H109.171V41.1463H110.732ZM110.732 39.5854V41.1463H109.171V39.5854H110.732ZM110.732 38.0244V39.5854H109.171V38.0244H110.732ZM110.732 36.4634V38.0244H109.171V36.4634H110.732ZM110.732 34.9024V36.4634H109.171V34.9024H110.732ZM110.732 33.3415V34.9024H109.171V33.3415H110.732ZM110.732 31.7805V33.3415H109.171V31.7805H110.732ZM110.732 30.2195V31.7805H109.171V30.2195H110.732ZM109.171 33.3415V34.9024H107.61V33.3415H109.171ZM110.732 28.6585V30.2195H109.171V28.6585H110.732ZM110.732 27.0976V28.6585H109.171V27.0976H110.732ZM110.732 25.5366V27.0976H109.171V25.5366H110.732ZM110.732 23.9756V25.5366H109.171V23.9756H110.732ZM107.61 23.9756V25.5366H106.049V23.9756H107.61ZM106.049 23.9756V25.5366H104.488V23.9756H106.049ZM106.049 25.5366V27.0976H104.488V25.5366H106.049ZM107.61 25.5366V27.0976H106.049V25.5366H107.61ZM107.61 27.0976V28.6585H106.049V27.0976H107.61ZM107.61 28.6585V30.2195H106.049V28.6585H107.61ZM107.61 30.2195V31.7805H106.049V30.2195H107.61ZM107.61 31.7805V33.3415H106.049V31.7805H107.61ZM107.61 33.3415V34.9024H106.049V33.3415H107.61ZM107.61 34.9024V36.4634H106.049V34.9024H107.61ZM106.049 36.4634V38.0244H104.488V36.4634H106.049ZM106.049 38.0244V39.5854H104.488V38.0244H106.049ZM106.049 34.9024V36.4634H104.488V34.9024H106.049ZM106.049 33.3415V34.9024H104.488V33.3415H106.049ZM106.049 31.7805V33.3415H104.488V31.7805H106.049ZM106.049 30.2195V31.7805H104.488V30.2195H106.049ZM106.049 28.6585V30.2195H104.488V28.6585H106.049ZM106.049 27.0976V28.6585H104.488V27.0976H106.049ZM107.61 36.4634V38.0244H106.049V36.4634H107.61ZM107.61 38.0244V39.5854H106.049V38.0244H107.61ZM107.61 39.5854V41.1463H106.049V39.5854H107.61ZM107.61 41.1463V42.7073H106.049V41.1463H107.61ZM107.61 42.7073V44.2683H106.049V42.7073H107.61ZM107.61 44.2683V45.8293H106.049V44.2683H107.61ZM107.61 45.8293V47.3902H106.049V45.8293H107.61ZM107.61 47.3902V48.9512H106.049V47.3902H107.61ZM107.61 48.9512V50.5122H106.049V48.9512H107.61ZM109.171 47.3902V48.9512H107.61V47.3902H109.171ZM109.171 45.8293V47.3902H107.61V45.8293H109.171ZM102.927 23.9756V25.5366H101.366V23.9756H102.927ZM101.366 23.9756V25.5366H99.8049V23.9756H101.366ZM99.8049 23.9756V25.5366H98.2439V23.9756H99.8049ZM98.2439 23.9756V25.5366H96.6829V23.9756H98.2439ZM96.6829 23.9756V25.5366H95.122V23.9756H96.6829ZM96.6829 25.5366V27.0976H95.122V25.5366H96.6829ZM96.6829 27.0976V28.6585H95.122V27.0976H96.6829ZM98.2439 25.5366V27.0976H96.6829V25.5366H98.2439ZM99.8049 25.5366V27.0976H98.2439V25.5366H99.8049ZM101.366 25.5366V27.0976H99.8049V25.5366H101.366ZM102.927 27.0976V28.6585H101.366V27.0976H102.927ZM102.927 25.5366V27.0976H101.366V25.5366H102.927ZM101.366 27.0976V28.6585H99.8049V27.0976H101.366ZM99.8049 27.0976V28.6585H98.2439V27.0976H99.8049ZM98.2439 27.0976V28.6585H96.6829V27.0976H98.2439ZM112.293 23.9756V25.5366H110.732V23.9756H112.293ZM113.854 23.9756V25.5366H112.293V23.9756H113.854ZM115.415 23.9756V25.5366H113.854V23.9756H115.415ZM116.976 23.9756V25.5366H115.415V23.9756H116.976ZM118.537 23.9756V25.5366H116.976V23.9756H118.537ZM118.537 25.5366V27.0976H116.976V25.5366H118.537ZM116.976 25.5366V27.0976H115.415V25.5366H116.976ZM115.415 25.5366V27.0976H113.854V25.5366H115.415ZM113.854 25.5366V27.0976H112.293V25.5366H113.854ZM112.293 25.5366V27.0976H110.732V25.5366H112.293ZM112.293 27.0976V28.6585H110.732V27.0976H112.293ZM113.854 27.0976V28.6585H112.293V27.0976H113.854ZM115.415 27.0976V28.6585H113.854V27.0976H115.415ZM116.976 27.0976V28.6585H115.415V27.0976H116.976ZM118.537 27.0976V28.6585H116.976V27.0976H118.537ZM96.6829 28.6585V30.2195H95.122V28.6585H96.6829ZM96.6829 30.2195V31.7805H95.122V30.2195H96.6829ZM98.2439 30.2195V31.7805H96.6829V30.2195H98.2439ZM99.8049 30.2195V31.7805H98.2439V30.2195H99.8049ZM101.366 30.2195V31.7805H99.8049V30.2195H101.366ZM102.927 30.2195V31.7805H101.366V30.2195H102.927ZM102.927 28.6585V30.2195H101.366V28.6585H102.927ZM101.366 28.6585V30.2195H99.8049V28.6585H101.366ZM99.8049 28.6585V30.2195H98.2439V28.6585H99.8049ZM98.2439 28.6585V30.2195H96.6829V28.6585H98.2439ZM118.537 28.6585V30.2195H116.976V28.6585H118.537ZM118.537 30.2195V31.7805H116.976V30.2195H118.537ZM116.976 30.2195V31.7805H115.415V30.2195H116.976ZM115.415 30.2195V31.7805H113.854V30.2195H115.415ZM113.854 30.2195V31.7805H112.293V30.2195H113.854ZM112.293 30.2195V31.7805H110.732V30.2195H112.293ZM112.293 28.6585V30.2195H110.732V28.6585H112.293ZM113.854 28.6585V30.2195H112.293V28.6585H113.854ZM115.415 28.6585V30.2195H113.854V28.6585H115.415ZM116.976 28.6585V30.2195H115.415V28.6585H116.976ZM126.37 23.9756V25.5366H124.809V23.9756H126.37ZM126.37 25.5366V27.0976H124.809V25.5366H126.37ZM126.37 27.0976V28.6585H124.809V27.0976H126.37ZM131.053 23.9756V25.5366H129.492V23.9756H131.053ZM131.053 25.5366V27.0976H129.492V25.5366H131.053ZM131.053 27.0976V28.6585H129.492V27.0976H131.053ZM132.614 27.0976V28.6585H131.053V27.0976H132.614ZM132.614 25.5366V27.0976H131.053V25.5366H132.614ZM132.614 23.9756V25.5366H131.053V23.9756H132.614ZM129.492 23.9756V25.5366H127.931V23.9756H129.492ZM127.931 23.9756V25.5366H126.37V23.9756H127.931ZM127.931 25.5366V27.0976H126.37V25.5366H127.931ZM129.492 25.5366V27.0976H127.931V25.5366H129.492ZM129.492 27.0976V28.6585H127.931V27.0976H129.492ZM127.931 27.0976V28.6585H126.37V27.0976H127.931ZM126.37 28.6585V30.2195H124.809V28.6585H126.37ZM127.931 28.6585V30.2195H126.37V28.6585H127.931ZM129.492 28.6585V30.2195H127.931V28.6585H129.492ZM131.053 28.6585V30.2195H129.492V28.6585H131.053ZM132.614 28.6585V30.2195H131.053V28.6585H132.614ZM126.37 61.439V63H124.809V61.439H126.37ZM126.37 59.878V61.439H124.809V59.878H126.37ZM126.37 58.3171V59.878H124.809V58.3171H126.37ZM126.37 56.7561V58.3171H124.809V56.7561H126.37ZM126.37 55.1951V56.7561H124.809V55.1951H126.37ZM126.37 53.6341V55.1951H124.809V53.6341H126.37ZM126.37 52.0732V53.6341H124.809V52.0732H126.37ZM126.37 50.5122V52.0732H124.809V50.5122H126.37ZM126.37 48.9512V50.5122H124.809V48.9512H126.37ZM126.37 47.3902V48.9512H124.809V47.3902H126.37ZM126.37 45.8293V47.3902H124.809V45.8293H126.37ZM126.37 44.2683V45.8293H124.809V44.2683H126.37ZM126.37 42.7073V44.2683H124.809V42.7073H126.37ZM126.37 41.1463V42.7073H124.809V41.1463H126.37ZM126.37 39.5854V41.1463H124.809V39.5854H126.37ZM127.931 39.5854V41.1463H126.37V39.5854H127.931ZM127.931 41.1463V42.7073H126.37V41.1463H127.931ZM127.931 42.7073V44.2683H126.37V42.7073H127.931ZM127.931 44.2683V45.8293H126.37V44.2683H127.931ZM127.931 45.8293V47.3902H126.37V45.8293H127.931ZM127.931 47.3902V48.9512H126.37V47.3902H127.931ZM127.931 48.9512V50.5122H126.37V48.9512H127.931ZM129.492 50.5122V52.0732H127.931V50.5122H129.492ZM129.492 52.0732V53.6341H127.931V52.0732H129.492ZM129.492 53.6341V55.1951H127.931V53.6341H129.492ZM129.492 55.1951V56.7561H127.931V55.1951H129.492ZM129.492 56.7561V58.3171H127.931V56.7561H129.492ZM129.492 58.3171V59.878H127.931V58.3171H129.492ZM129.492 59.878V61.439H127.931V59.878H129.492ZM129.492 61.439V63H127.931V61.439H129.492ZM131.053 61.439V63H129.492V61.439H131.053ZM132.614 61.439V63H131.053V61.439H132.614ZM132.614 59.878V61.439H131.053V59.878H132.614ZM132.614 58.3171V59.878H131.053V58.3171H132.614ZM132.614 56.7561V58.3171H131.053V56.7561H132.614ZM132.614 55.1951V56.7561H131.053V55.1951H132.614ZM132.614 53.6341V55.1951H131.053V53.6341H132.614ZM132.614 52.0732V53.6341H131.053V52.0732H132.614ZM132.614 50.5122V52.0732H131.053V50.5122H132.614ZM131.053 50.5122V52.0732H129.492V50.5122H131.053ZM131.053 48.9512V50.5122H129.492V48.9512H131.053ZM131.053 52.0732V53.6341H129.492V52.0732H131.053ZM131.053 53.6341V55.1951H129.492V53.6341H131.053ZM131.053 55.1951V56.7561H129.492V55.1951H131.053ZM131.053 56.7561V58.3171H129.492V56.7561H131.053ZM131.053 58.3171V59.878H129.492V58.3171H131.053ZM131.053 59.878V61.439H129.492V59.878H131.053ZM127.931 61.439V63H126.37V61.439H127.931ZM127.931 59.878V61.439H126.37V59.878H127.931ZM127.931 58.3171V59.878H126.37V58.3171H127.931ZM127.931 56.7561V58.3171H126.37V56.7561H127.931ZM127.931 55.1951V56.7561H126.37V55.1951H127.931ZM127.931 53.6341V55.1951H126.37V53.6341H127.931ZM127.931 52.0732V53.6341H126.37V52.0732H127.931ZM127.931 50.5122V52.0732H126.37V50.5122H127.931ZM126.37 36.4634V38.0244H124.809V36.4634H126.37ZM126.37 38.0244V39.5854H124.809V38.0244H126.37ZM131.053 36.4634V38.0244H129.492V36.4634H131.053ZM131.053 38.0244V39.5854H129.492V38.0244H131.053ZM131.053 39.5854V41.1463H129.492V39.5854H131.053ZM131.053 41.1463V42.7073H129.492V41.1463H131.053ZM131.053 42.7073V44.2683H129.492V42.7073H131.053ZM131.053 44.2683V45.8293H129.492V44.2683H131.053ZM132.614 45.8293V47.3902H131.053V45.8293H132.614ZM132.614 47.3902V48.9512H131.053V47.3902H132.614ZM132.614 48.9512V50.5122H131.053V48.9512H132.614ZM132.614 44.2683V45.8293H131.053V44.2683H132.614ZM132.614 42.7073V44.2683H131.053V42.7073H132.614ZM132.614 41.1463V42.7073H131.053V41.1463H132.614ZM132.614 39.5854V41.1463H131.053V39.5854H132.614ZM132.614 38.0244V39.5854H131.053V38.0244H132.614ZM132.614 36.4634V38.0244H131.053V36.4634H132.614ZM127.931 36.4634V38.0244H126.37V36.4634H127.931ZM127.931 38.0244V39.5854H126.37V38.0244H127.931ZM129.492 36.4634V38.0244H127.931V36.4634H129.492ZM129.492 38.0244V39.5854H127.931V38.0244H129.492ZM129.492 39.5854V41.1463H127.931V39.5854H129.492ZM129.492 41.1463V42.7073H127.931V41.1463H129.492ZM129.492 42.7073V44.2683H127.931V42.7073H129.492ZM129.492 44.2683V45.8293H127.931V44.2683H129.492ZM129.492 45.8293V47.3902H127.931V45.8293H129.492ZM129.492 47.3902V48.9512H127.931V47.3902H129.492ZM129.492 48.9512V50.5122H127.931V48.9512H129.492ZM131.053 47.3902V48.9512H129.492V47.3902H131.053ZM131.053 45.8293V47.3902H129.492V45.8293H131.053ZM131.053 34.9024V36.4634H129.492V34.9024H131.053ZM132.614 34.9024V36.4634H131.053V34.9024H132.614ZM129.492 34.9024V36.4634H127.931V34.9024H129.492ZM127.931 34.9024V36.4634H126.37V34.9024H127.931ZM126.37 34.9024V36.4634H124.809V34.9024H126.37ZM156.043 42.7073V44.2683H154.482V42.7073H156.043ZM157.604 42.7073V44.2683H156.043V42.7073H157.604ZM159.165 42.7073V44.2683H157.604V42.7073H159.165ZM160.726 42.7073V44.2683H159.165V42.7073H160.726ZM162.287 42.7073V44.2683H160.726V42.7073H162.287ZM162.287 41.1463V42.7073H160.726V41.1463H162.287ZM162.287 39.5854V41.1463H160.726V39.5854H162.287ZM160.726 39.5854V41.1463H159.165V39.5854H160.726ZM159.165 39.5854V41.1463H157.604V39.5854H159.165ZM157.604 39.5854V41.1463H156.043V39.5854H157.604ZM157.604 41.1463V42.7073H156.043V41.1463H157.604ZM156.043 41.1463V42.7073H154.482V41.1463H156.043ZM159.165 41.1463V42.7073H157.604V41.1463H159.165ZM160.726 41.1463V42.7073H159.165V41.1463H160.726ZM156.043 39.5854V41.1463H154.482V39.5854H156.043ZM154.482 39.5854V41.1463H152.921V39.5854H154.482ZM154.482 38.0244V39.5854H152.921V38.0244H154.482ZM156.043 38.0244V39.5854H154.482V38.0244H156.043ZM157.604 38.0244V39.5854H156.043V38.0244H157.604ZM159.165 38.0244V39.5854H157.604V38.0244H159.165ZM160.726 38.0244V39.5854H159.165V38.0244H160.726ZM160.726 36.4634V38.0244H159.165V36.4634H160.726ZM159.165 36.4634V38.0244H157.604V36.4634H159.165ZM157.604 36.4634V38.0244H156.043V36.4634H157.604ZM156.043 36.4634V38.0244H154.482V36.4634H156.043ZM154.482 36.4634V38.0244H152.921V36.4634H154.482ZM157.604 34.9024V36.4634H156.043V34.9024H157.604ZM159.165 34.9024V36.4634H157.604V34.9024H159.165ZM156.043 34.9024V36.4634H154.482V34.9024H156.043ZM156.043 33.3415V34.9024H154.482V33.3415H156.043ZM154.482 33.3415V34.9024H152.921V33.3415H154.482ZM154.482 34.9024V36.4634H152.921V34.9024H154.482ZM152.921 34.9024V36.4634H151.36V34.9024H152.921ZM152.921 33.3415V34.9024H151.36V33.3415H152.921ZM152.921 36.4634V38.0244H151.36V36.4634H152.921ZM151.36 36.4634V38.0244H149.799V36.4634H151.36ZM151.36 38.0244V39.5854H149.799V38.0244H151.36ZM152.921 38.0244V39.5854H151.36V38.0244H152.921ZM149.799 38.0244V39.5854H148.238V38.0244H149.799ZM149.799 36.4634V38.0244H148.238V36.4634H149.799ZM149.799 34.9024V36.4634H148.238V34.9024H149.799ZM149.799 33.3415V34.9024H148.238V33.3415H149.799ZM151.36 33.3415V34.9024H149.799V33.3415H151.36ZM151.36 34.9024V36.4634H149.799V34.9024H151.36ZM148.238 33.3415V34.9024H146.677V33.3415H148.238ZM146.677 33.3415V34.9024H145.116V33.3415H146.677ZM145.116 33.3415V34.9024H143.555V33.3415H145.116ZM145.116 34.9024V36.4634H143.555V34.9024H145.116ZM145.116 36.4634V38.0244H143.555V36.4634H145.116ZM145.116 38.0244V39.5854H143.555V38.0244H145.116ZM146.677 38.0244V39.5854H145.116V38.0244H146.677ZM148.238 38.0244V39.5854H146.677V38.0244H148.238ZM148.238 36.4634V38.0244H146.677V36.4634H148.238ZM148.238 34.9024V36.4634H146.677V34.9024H148.238ZM146.677 34.9024V36.4634H145.116V34.9024H146.677ZM146.677 36.4634V38.0244H145.116V36.4634H146.677ZM143.555 36.4634V38.0244H141.994V36.4634H143.555ZM143.555 34.9024V36.4634H141.994V34.9024H143.555ZM141.994 34.9024V36.4634H140.433V34.9024H141.994ZM141.994 36.4634V38.0244H140.433V36.4634H141.994ZM140.433 36.4634V38.0244H138.872V36.4634H140.433ZM140.433 38.0244V39.5854H138.872V38.0244H140.433ZM140.433 39.5854V41.1463H138.872V39.5854H140.433ZM141.994 39.5854V41.1463H140.433V39.5854H141.994ZM141.994 38.0244V39.5854H140.433V38.0244H141.994ZM143.555 38.0244V39.5854H141.994V38.0244H143.555ZM143.555 39.5854V41.1463H141.994V39.5854H143.555ZM145.116 39.5854V41.1463H143.555V39.5854H145.116ZM146.677 39.5854V41.1463H145.116V39.5854H146.677ZM138.872 39.5854V41.1463H137.311V39.5854H138.872ZM138.872 41.1463V42.7073H137.311V41.1463H138.872ZM138.872 42.7073V44.2683H137.311V42.7073H138.872ZM138.872 44.2683V45.8293H137.311V44.2683H138.872ZM138.872 45.8293V47.3902H137.311V45.8293H138.872ZM138.872 47.3902V48.9512H137.311V47.3902H138.872ZM138.872 48.9512V50.5122H137.311V48.9512H138.872ZM138.872 50.5122V52.0732H137.311V50.5122H138.872ZM138.872 52.0732V53.6341H137.311V52.0732H138.872ZM138.872 53.6341V55.1951H137.311V53.6341H138.872ZM140.433 53.6341V55.1951H138.872V53.6341H140.433ZM140.433 55.1951V56.7561H138.872V55.1951H140.433ZM138.872 55.1951V56.7561H137.311V55.1951H138.872ZM141.994 55.1951V56.7561H140.433V55.1951H141.994ZM143.555 55.1951V56.7561H141.994V55.1951H143.555ZM145.116 55.1951V56.7561H143.555V55.1951H145.116ZM146.677 55.1951V56.7561H145.116V55.1951H146.677ZM145.116 53.6341V55.1951H143.555V53.6341H145.116ZM145.116 52.0732V53.6341H143.555V52.0732H145.116ZM145.116 50.5122V52.0732H143.555V50.5122H145.116ZM145.116 48.9512V50.5122H143.555V48.9512H145.116ZM145.116 47.3902V48.9512H143.555V47.3902H145.116ZM145.116 45.8293V47.3902H143.555V45.8293H145.116ZM145.116 44.2683V45.8293H143.555V44.2683H145.116ZM145.116 42.7073V44.2683H143.555V42.7073H145.116ZM145.116 41.1463V42.7073H143.555V41.1463H145.116ZM143.555 41.1463V42.7073H141.994V41.1463H143.555ZM141.994 41.1463V42.7073H140.433V41.1463H141.994ZM140.433 41.1463V42.7073H138.872V41.1463H140.433ZM140.433 42.7073V44.2683H138.872V42.7073H140.433ZM140.433 44.2683V45.8293H138.872V44.2683H140.433ZM140.433 45.8293V47.3902H138.872V45.8293H140.433ZM140.433 47.3902V48.9512H138.872V47.3902H140.433ZM140.433 48.9512V50.5122H138.872V48.9512H140.433ZM140.433 50.5122V52.0732H138.872V50.5122H140.433ZM140.433 52.0732V53.6341H138.872V52.0732H140.433ZM141.994 53.6341V55.1951H140.433V53.6341H141.994ZM143.555 53.6341V55.1951H141.994V53.6341H143.555ZM143.555 52.0732V53.6341H141.994V52.0732H143.555ZM143.555 50.5122V52.0732H141.994V50.5122H143.555ZM143.555 48.9512V50.5122H141.994V48.9512H143.555ZM143.555 47.3902V48.9512H141.994V47.3902H143.555ZM141.994 47.3902V48.9512H140.433V47.3902H141.994ZM141.994 45.8293V47.3902H140.433V45.8293H141.994ZM141.994 44.2683V45.8293H140.433V44.2683H141.994ZM141.994 42.7073V44.2683H140.433V42.7073H141.994ZM143.555 42.7073V44.2683H141.994V42.7073H143.555ZM143.555 44.2683V45.8293H141.994V44.2683H143.555ZM143.555 45.8293V47.3902H141.994V45.8293H143.555ZM141.994 50.5122V52.0732H140.433V50.5122H141.994ZM141.994 52.0732V53.6341H140.433V52.0732H141.994ZM141.994 48.9512V50.5122H140.433V48.9512H141.994ZM156.043 52.0732V53.6341H154.482V52.0732H156.043ZM156.043 53.6341V55.1951H154.482V53.6341H156.043ZM157.604 53.6341V55.1951H156.043V53.6341H157.604ZM159.165 53.6341V55.1951H157.604V53.6341H159.165ZM160.726 53.6341V55.1951H159.165V53.6341H160.726ZM162.287 53.6341V55.1951H160.726V53.6341H162.287ZM162.287 52.0732V53.6341H160.726V52.0732H162.287ZM160.726 52.0732V53.6341H159.165V52.0732H160.726ZM159.165 52.0732V53.6341H157.604V52.0732H159.165ZM157.604 52.0732V53.6341H156.043V52.0732H157.604ZM162.287 55.1951V56.7561H160.726V55.1951H162.287ZM160.726 55.1951V56.7561H159.165V55.1951H160.726ZM159.165 55.1951V56.7561H157.604V55.1951H159.165ZM157.604 55.1951V56.7561H156.043V55.1951H157.604ZM156.043 55.1951V56.7561H154.482V55.1951H156.043ZM154.482 55.1951V56.7561H152.921V55.1951H154.482ZM154.482 56.7561V58.3171H152.921V56.7561H154.482ZM156.043 56.7561V58.3171H154.482V56.7561H156.043ZM157.604 56.7561V58.3171H156.043V56.7561H157.604ZM159.165 56.7561V58.3171H157.604V56.7561H159.165ZM159.165 58.3171V59.878H157.604V58.3171H159.165ZM160.726 58.3171V59.878H159.165V58.3171H160.726ZM160.726 56.7561V58.3171H159.165V56.7561H160.726ZM159.165 59.878V61.439H157.604V59.878H159.165ZM157.604 59.878V61.439H156.043V59.878H157.604ZM157.604 58.3171V59.878H156.043V58.3171H157.604ZM156.043 58.3171V59.878H154.482V58.3171H156.043ZM156.043 59.878V61.439H154.482V59.878H156.043ZM156.043 61.439V63H154.482V61.439H156.043ZM154.482 61.439V63H152.921V61.439H154.482ZM152.921 61.439V63H151.36V61.439H152.921ZM151.36 61.439V63H149.799V61.439H151.36ZM149.799 61.439V63H148.238V61.439H149.799ZM148.238 61.439V63H146.677V61.439H148.238ZM146.677 61.439V63H145.116V61.439H146.677ZM145.116 61.439V63H143.555V61.439H145.116ZM146.677 59.878V61.439H145.116V59.878H146.677ZM148.238 59.878V61.439H146.677V59.878H148.238ZM149.799 59.878V61.439H148.238V59.878H149.799ZM151.36 59.878V61.439H149.799V59.878H151.36ZM152.921 59.878V61.439H151.36V59.878H152.921ZM154.482 59.878V61.439H152.921V59.878H154.482ZM154.482 58.3171V59.878H152.921V58.3171H154.482ZM152.921 58.3171V59.878H151.36V58.3171H152.921ZM151.36 58.3171V59.878H149.799V58.3171H151.36ZM149.799 58.3171V59.878H148.238V58.3171H149.799ZM148.238 58.3171V59.878H146.677V58.3171H148.238ZM146.677 58.3171V59.878H145.116V58.3171H146.677ZM145.116 59.878V61.439H143.555V59.878H145.116ZM143.555 59.878V61.439H141.994V59.878H143.555ZM141.994 59.878V61.439H140.433V59.878H141.994ZM141.994 58.3171V59.878H140.433V58.3171H141.994ZM140.433 58.3171V59.878H138.872V58.3171H140.433ZM140.433 56.7561V58.3171H138.872V56.7561H140.433ZM141.994 56.7561V58.3171H140.433V56.7561H141.994ZM143.555 56.7561V58.3171H141.994V56.7561H143.555ZM145.116 56.7561V58.3171H143.555V56.7561H145.116ZM146.677 56.7561V58.3171H145.116V56.7561H146.677ZM148.238 56.7561V58.3171H146.677V56.7561H148.238ZM149.799 56.7561V58.3171H148.238V56.7561H149.799ZM151.36 56.7561V58.3171H149.799V56.7561H151.36ZM152.921 56.7561V58.3171H151.36V56.7561H152.921ZM145.116 58.3171V59.878H143.555V58.3171H145.116ZM143.555 58.3171V59.878H141.994V58.3171H143.555ZM168.558 61.439V63H166.997V61.439H168.558ZM168.558 59.878V61.439H166.997V59.878H168.558ZM168.558 58.3171V59.878H166.997V58.3171H168.558ZM168.558 56.7561V58.3171H166.997V56.7561H168.558ZM168.558 55.1951V56.7561H166.997V55.1951H168.558ZM168.558 53.6341V55.1951H166.997V53.6341H168.558ZM168.558 52.0732V53.6341H166.997V52.0732H168.558ZM168.558 50.5122V52.0732H166.997V50.5122H168.558ZM168.558 48.9512V50.5122H166.997V48.9512H168.558ZM168.558 47.3902V48.9512H166.997V47.3902H168.558ZM168.558 45.8293V47.3902H166.997V45.8293H168.558ZM168.558 44.2683V45.8293H166.997V44.2683H168.558ZM168.558 42.7073V44.2683H166.997V42.7073H168.558ZM168.558 41.1463V42.7073H166.997V41.1463H168.558ZM168.558 39.5854V41.1463H166.997V39.5854H168.558ZM170.119 39.5854V41.1463H168.558V39.5854H170.119ZM170.119 41.1463V42.7073H168.558V41.1463H170.119ZM170.119 42.7073V44.2683H168.558V42.7073H170.119ZM170.119 44.2683V45.8293H168.558V44.2683H170.119ZM170.119 45.8293V47.3902H168.558V45.8293H170.119ZM170.119 47.3902V48.9512H168.558V47.3902H170.119ZM170.119 48.9512V50.5122H168.558V48.9512H170.119ZM171.68 50.5122V52.0732H170.119V50.5122H171.68ZM171.68 52.0732V53.6341H170.119V52.0732H171.68ZM171.68 53.6341V55.1951H170.119V53.6341H171.68ZM171.68 55.1951V56.7561H170.119V55.1951H171.68ZM171.68 56.7561V58.3171H170.119V56.7561H171.68ZM171.68 58.3171V59.878H170.119V58.3171H171.68ZM171.68 59.878V61.439H170.119V59.878H171.68ZM171.68 61.439V63H170.119V61.439H171.68ZM173.241 61.439V63H171.68V61.439H173.241ZM174.802 61.439V63H173.241V61.439H174.802ZM174.802 59.878V61.439H173.241V59.878H174.802ZM174.802 58.3171V59.878H173.241V58.3171H174.802ZM174.802 56.7561V58.3171H173.241V56.7561H174.802ZM174.802 55.1951V56.7561H173.241V55.1951H174.802ZM174.802 53.6341V55.1951H173.241V53.6341H174.802ZM174.802 52.0732V53.6341H173.241V52.0732H174.802ZM174.802 50.5122V52.0732H173.241V50.5122H174.802ZM173.241 50.5122V52.0732H171.68V50.5122H173.241ZM173.241 48.9512V50.5122H171.68V48.9512H173.241ZM173.241 52.0732V53.6341H171.68V52.0732H173.241ZM173.241 53.6341V55.1951H171.68V53.6341H173.241ZM173.241 55.1951V56.7561H171.68V55.1951H173.241ZM173.241 56.7561V58.3171H171.68V56.7561H173.241ZM173.241 58.3171V59.878H171.68V58.3171H173.241ZM173.241 59.878V61.439H171.68V59.878H173.241ZM170.119 61.439V63H168.558V61.439H170.119ZM170.119 59.878V61.439H168.558V59.878H170.119ZM170.119 58.3171V59.878H168.558V58.3171H170.119ZM170.119 56.7561V58.3171H168.558V56.7561H170.119ZM170.119 55.1951V56.7561H168.558V55.1951H170.119ZM170.119 53.6341V55.1951H168.558V53.6341H170.119ZM170.119 52.0732V53.6341H168.558V52.0732H170.119ZM170.119 50.5122V52.0732H168.558V50.5122H170.119ZM168.558 23.9756V25.5366H166.997V23.9756H168.558ZM168.558 25.5366V27.0976H166.997V25.5366H168.558ZM168.558 27.0976V28.6585H166.997V27.0976H168.558ZM168.558 28.6585V30.2195H166.997V28.6585H168.558ZM168.558 30.2195V31.7805H166.997V30.2195H168.558ZM168.558 31.7805V33.3415H166.997V31.7805H168.558ZM168.558 33.3415V34.9024H166.997V33.3415H168.558ZM168.558 34.9024V36.4634H166.997V34.9024H168.558ZM168.558 36.4634V38.0244H166.997V36.4634H168.558ZM168.558 38.0244V39.5854H166.997V38.0244H168.558ZM173.241 23.9756V25.5366H171.68V23.9756H173.241ZM173.241 25.5366V27.0976H171.68V25.5366H173.241ZM173.241 27.0976V28.6585H171.68V27.0976H173.241ZM173.241 28.6585V30.2195H171.68V28.6585H173.241ZM173.241 30.2195V31.7805H171.68V30.2195H173.241ZM173.241 31.7805V33.3415H171.68V31.7805H173.241ZM173.241 34.9024V36.4634H171.68V34.9024H173.241ZM173.241 36.4634V38.0244H171.68V36.4634H173.241ZM173.241 38.0244V39.5854H171.68V38.0244H173.241ZM173.241 39.5854V41.1463H171.68V39.5854H173.241ZM173.241 41.1463V42.7073H171.68V41.1463H173.241ZM173.241 42.7073V44.2683H171.68V42.7073H173.241ZM173.241 44.2683V45.8293H171.68V44.2683H173.241ZM174.802 45.8293V47.3902H173.241V45.8293H174.802ZM174.802 47.3902V48.9512H173.241V47.3902H174.802ZM174.802 48.9512V50.5122H173.241V48.9512H174.802ZM174.802 44.2683V45.8293H173.241V44.2683H174.802ZM174.802 42.7073V44.2683H173.241V42.7073H174.802ZM174.802 41.1463V42.7073H173.241V41.1463H174.802ZM174.802 39.5854V41.1463H173.241V39.5854H174.802ZM174.802 38.0244V39.5854H173.241V38.0244H174.802ZM174.802 36.4634V38.0244H173.241V36.4634H174.802ZM174.802 34.9024V36.4634H173.241V34.9024H174.802ZM174.802 33.3415V34.9024H173.241V33.3415H174.802ZM174.802 31.7805V33.3415H173.241V31.7805H174.802ZM174.802 30.2195V31.7805H173.241V30.2195H174.802ZM173.241 33.3415V34.9024H171.68V33.3415H173.241ZM174.802 28.6585V30.2195H173.241V28.6585H174.802ZM174.802 27.0976V28.6585H173.241V27.0976H174.802ZM174.802 25.5366V27.0976H173.241V25.5366H174.802ZM174.802 23.9756V25.5366H173.241V23.9756H174.802ZM171.68 23.9756V25.5366H170.119V23.9756H171.68ZM170.119 23.9756V25.5366H168.558V23.9756H170.119ZM170.119 25.5366V27.0976H168.558V25.5366H170.119ZM171.68 25.5366V27.0976H170.119V25.5366H171.68ZM171.68 27.0976V28.6585H170.119V27.0976H171.68ZM171.68 28.6585V30.2195H170.119V28.6585H171.68ZM171.68 30.2195V31.7805H170.119V30.2195H171.68ZM171.68 31.7805V33.3415H170.119V31.7805H171.68ZM171.68 33.3415V34.9024H170.119V33.3415H171.68ZM171.68 34.9024V36.4634H170.119V34.9024H171.68ZM170.119 36.4634V38.0244H168.558V36.4634H170.119ZM170.119 38.0244V39.5854H168.558V38.0244H170.119ZM170.119 34.9024V36.4634H168.558V34.9024H170.119ZM170.119 33.3415V34.9024H168.558V33.3415H170.119ZM170.119 31.7805V33.3415H168.558V31.7805H170.119ZM170.119 30.2195V31.7805H168.558V30.2195H170.119ZM170.119 28.6585V30.2195H168.558V28.6585H170.119ZM170.119 27.0976V28.6585H168.558V27.0976H170.119ZM171.68 36.4634V38.0244H170.119V36.4634H171.68ZM171.68 38.0244V39.5854H170.119V38.0244H171.68ZM171.68 39.5854V41.1463H170.119V39.5854H171.68ZM171.68 41.1463V42.7073H170.119V41.1463H171.68ZM171.68 42.7073V44.2683H170.119V42.7073H171.68ZM171.68 44.2683V45.8293H170.119V44.2683H171.68ZM171.68 45.8293V47.3902H170.119V45.8293H171.68ZM171.68 47.3902V48.9512H170.119V47.3902H171.68ZM171.68 48.9512V50.5122H170.119V48.9512H171.68ZM173.241 47.3902V48.9512H171.68V47.3902H173.241ZM173.241 45.8293V47.3902H171.68V45.8293H173.241ZM182.607 34.9024V36.4634H181.046V34.9024H182.607ZM182.607 33.3415V34.9024H181.046V33.3415H182.607ZM184.168 33.3415V34.9024H182.607V33.3415H184.168ZM185.729 33.3415V34.9024H184.168V33.3415H185.729ZM187.29 33.3415V34.9024H185.729V33.3415H187.29ZM188.851 33.3415V34.9024H187.29V33.3415H188.851ZM188.851 34.9024V36.4634H187.29V34.9024H188.851ZM188.851 36.4634V38.0244H187.29V36.4634H188.851ZM188.851 38.0244V39.5854H187.29V38.0244H188.851ZM188.851 39.5854V41.1463H187.29V39.5854H188.851ZM187.29 39.5854V41.1463H185.729V39.5854H187.29ZM187.29 41.1463V42.7073H185.729V41.1463H187.29ZM185.729 41.1463V42.7073H184.168V41.1463H185.729ZM185.729 42.7073V44.2683H184.168V42.7073H185.729ZM184.168 42.7073V44.2683H182.607V42.7073H184.168ZM184.168 44.2683V45.8293H182.607V44.2683H184.168ZM182.607 44.2683V45.8293H181.046V44.2683H182.607ZM182.607 45.8293V47.3902H181.046V45.8293H182.607ZM182.607 47.3902V48.9512H181.046V47.3902H182.607ZM184.168 47.3902V48.9512H182.607V47.3902H184.168ZM184.168 48.9512V50.5122H182.607V48.9512H184.168ZM185.729 48.9512V50.5122H184.168V48.9512H185.729ZM185.729 50.5122V52.0732H184.168V50.5122H185.729ZM187.29 50.5122V52.0732H185.729V50.5122H187.29ZM187.29 52.0732V53.6341H185.729V52.0732H187.29ZM188.851 52.0732V53.6341H187.29V52.0732H188.851ZM188.851 53.6341V55.1951H187.29V53.6341H188.851ZM188.851 55.1951V56.7561H187.29V55.1951H188.851ZM188.851 56.7561V58.3171H187.29V56.7561H188.851ZM188.851 58.3171V59.878H187.29V58.3171H188.851ZM188.851 59.878V61.439H187.29V59.878H188.851ZM188.851 61.439V63H187.29V61.439H188.851ZM182.607 36.4634V38.0244H181.046V36.4634H182.607ZM182.607 38.0244V39.5854H181.046V38.0244H182.607ZM182.607 39.5854V41.1463H181.046V39.5854H182.607ZM181.046 39.5854V41.1463H179.485V39.5854H181.046ZM182.607 41.1463V42.7073H181.046V41.1463H182.607ZM181.046 41.1463V42.7073H179.485V41.1463H181.046ZM181.046 42.7073V44.2683H179.485V42.7073H181.046ZM179.485 41.1463V42.7073H177.924V41.1463H179.485ZM179.485 42.7073V44.2683H177.924V42.7073H179.485ZM181.046 44.2683V45.8293H179.485V44.2683H181.046ZM182.607 42.7073V44.2683H181.046V42.7073H182.607ZM184.168 41.1463V42.7073H182.607V41.1463H184.168ZM185.729 39.5854V41.1463H184.168V39.5854H185.729ZM187.29 38.0244V39.5854H185.729V38.0244H187.29ZM187.29 36.4634V38.0244H185.729V36.4634H187.29ZM187.29 34.9024V36.4634H185.729V34.9024H187.29ZM185.729 34.9024V36.4634H184.168V34.9024H185.729ZM184.168 36.4634V38.0244H182.607V36.4634H184.168ZM184.168 38.0244V39.5854H182.607V38.0244H184.168ZM184.168 39.5854V41.1463H182.607V39.5854H184.168ZM185.729 38.0244V39.5854H184.168V38.0244H185.729ZM185.729 36.4634V38.0244H184.168V36.4634H185.729ZM184.168 34.9024V36.4634H182.607V34.9024H184.168ZM177.924 42.7073V44.2683H176.363V42.7073H177.924ZM176.363 42.7073V44.2683H174.802V42.7073H176.363ZM176.363 44.2683V45.8293H174.802V44.2683H176.363ZM176.363 45.8293V47.3902H174.802V45.8293H176.363ZM176.363 47.3902V48.9512H174.802V47.3902H176.363ZM177.924 47.3902V48.9512H176.363V47.3902H177.924ZM177.924 48.9512V50.5122H176.363V48.9512H177.924ZM176.363 48.9512V50.5122H174.802V48.9512H176.363ZM179.485 48.9512V50.5122H177.924V48.9512H179.485ZM179.485 50.5122V52.0732H177.924V50.5122H179.485ZM181.046 50.5122V52.0732H179.485V50.5122H181.046ZM181.046 52.0732V53.6341H179.485V52.0732H181.046ZM182.607 52.0732V53.6341H181.046V52.0732H182.607ZM182.607 53.6341V55.1951H181.046V53.6341H182.607ZM184.168 55.1951V56.7561H182.607V55.1951H184.168ZM184.168 56.7561V58.3171H182.607V56.7561H184.168ZM184.168 58.3171V59.878H182.607V58.3171H184.168ZM182.607 58.3171V59.878H181.046V58.3171H182.607ZM182.607 56.7561V58.3171H181.046V56.7561H182.607ZM182.607 55.1951V56.7561H181.046V55.1951H182.607ZM182.607 59.878V61.439H181.046V59.878H182.607ZM182.607 61.439V63H181.046V61.439H182.607ZM184.168 61.439V63H182.607V61.439H184.168ZM185.729 61.439V63H184.168V61.439H185.729ZM187.29 61.439V63H185.729V61.439H187.29ZM187.29 59.878V61.439H185.729V59.878H187.29ZM185.729 59.878V61.439H184.168V59.878H185.729ZM184.168 59.878V61.439H182.607V59.878H184.168ZM185.729 58.3171V59.878H184.168V58.3171H185.729ZM187.29 58.3171V59.878H185.729V58.3171H187.29ZM187.29 56.7561V58.3171H185.729V56.7561H187.29ZM187.29 55.1951V56.7561H185.729V55.1951H187.29ZM187.29 53.6341V55.1951H185.729V53.6341H187.29ZM185.729 53.6341V55.1951H184.168V53.6341H185.729ZM185.729 55.1951V56.7561H184.168V55.1951H185.729ZM185.729 56.7561V58.3171H184.168V56.7561H185.729ZM185.729 52.0732V53.6341H184.168V52.0732H185.729ZM184.168 52.0732V53.6341H182.607V52.0732H184.168ZM184.168 50.5122V52.0732H182.607V50.5122H184.168ZM182.607 50.5122V52.0732H181.046V50.5122H182.607ZM182.607 48.9512V50.5122H181.046V48.9512H182.607ZM181.046 48.9512V50.5122H179.485V48.9512H181.046ZM181.046 47.3902V48.9512H179.485V47.3902H181.046ZM181.046 45.8293V47.3902H179.485V45.8293H181.046ZM179.485 45.8293V47.3902H177.924V45.8293H179.485ZM179.485 44.2683V45.8293H177.924V44.2683H179.485ZM177.924 44.2683V45.8293H176.363V44.2683H177.924ZM177.924 45.8293V47.3902H176.363V45.8293H177.924ZM179.485 47.3902V48.9512H177.924V47.3902H179.485ZM184.168 53.6341V55.1951H182.607V53.6341H184.168Z" fill="white"/>
<path d="M146.688 102.439V104H145.127V102.439H146.688ZM146.688 100.878V102.439H145.127V100.878H146.688ZM146.688 99.3171V100.878H145.127V99.3171H146.688ZM146.688 97.7561V99.3171H145.127V97.7561H146.688ZM146.688 96.1951V97.7561H145.127V96.1951H146.688ZM146.688 94.6341V96.1951H145.127V94.6341H146.688ZM146.688 93.0732V94.6341H145.127V93.0732H146.688ZM146.688 91.5122V93.0732H145.127V91.5122H146.688ZM146.688 89.9512V91.5122H145.127V89.9512H146.688ZM146.688 88.3902V89.9512H145.127V88.3902H146.688ZM146.688 86.8293V88.3902H145.127V86.8293H146.688ZM146.688 85.2683V86.8293H145.127V85.2683H146.688ZM146.688 83.7073V85.2683H145.127V83.7073H146.688ZM146.688 82.1463V83.7073H145.127V82.1463H146.688ZM146.688 80.5854V82.1463H145.127V80.5854H146.688ZM148.249 80.5854V82.1463H146.688V80.5854H148.249ZM148.249 82.1463V83.7073H146.688V82.1463H148.249ZM148.249 83.7073V85.2683H146.688V83.7073H148.249ZM148.249 85.2683V86.8293H146.688V85.2683H148.249ZM148.249 86.8293V88.3902H146.688V86.8293H148.249ZM148.249 88.3902V89.9512H146.688V88.3902H148.249ZM148.249 89.9512V91.5122H146.688V89.9512H148.249ZM149.81 91.5122V93.0732H148.249V91.5122H149.81ZM149.81 93.0732V94.6341H148.249V93.0732H149.81ZM149.81 94.6341V96.1951H148.249V94.6341H149.81ZM149.81 96.1951V97.7561H148.249V96.1951H149.81ZM149.81 97.7561V99.3171H148.249V97.7561H149.81ZM149.81 99.3171V100.878H148.249V99.3171H149.81ZM149.81 100.878V102.439H148.249V100.878H149.81ZM149.81 102.439V104H148.249V102.439H149.81ZM151.371 102.439V104H149.81V102.439H151.371ZM152.932 102.439V104H151.371V102.439H152.932ZM152.932 100.878V102.439H151.371V100.878H152.932ZM152.932 99.3171V100.878H151.371V99.3171H152.932ZM152.932 97.7561V99.3171H151.371V97.7561H152.932ZM152.932 96.1951V97.7561H151.371V96.1951H152.932ZM152.932 94.6341V96.1951H151.371V94.6341H152.932ZM152.932 93.0732V94.6341H151.371V93.0732H152.932ZM152.932 91.5122V93.0732H151.371V91.5122H152.932ZM151.371 91.5122V93.0732H149.81V91.5122H151.371ZM151.371 89.9512V91.5122H149.81V89.9512H151.371ZM151.371 93.0732V94.6341H149.81V93.0732H151.371ZM151.371 94.6341V96.1951H149.81V94.6341H151.371ZM151.371 96.1951V97.7561H149.81V96.1951H151.371ZM151.371 97.7561V99.3171H149.81V97.7561H151.371ZM151.371 99.3171V100.878H149.81V99.3171H151.371ZM151.371 100.878V102.439H149.81V100.878H151.371ZM148.249 102.439V104H146.688V102.439H148.249ZM148.249 100.878V102.439H146.688V100.878H148.249ZM148.249 99.3171V100.878H146.688V99.3171H148.249ZM148.249 97.7561V99.3171H146.688V97.7561H148.249ZM148.249 96.1951V97.7561H146.688V96.1951H148.249ZM148.249 94.6341V96.1951H146.688V94.6341H148.249ZM148.249 93.0732V94.6341H146.688V93.0732H148.249ZM148.249 91.5122V93.0732H146.688V91.5122H148.249ZM146.688 64.9756V66.5366H145.127V64.9756H146.688ZM146.688 66.5366V68.0976H145.127V66.5366H146.688ZM146.688 68.0976V69.6585H145.127V68.0976H146.688ZM146.688 69.6585V71.2195H145.127V69.6585H146.688ZM146.688 71.2195V72.7805H145.127V71.2195H146.688ZM146.688 72.7805V74.3415H145.127V72.7805H146.688ZM146.688 74.3415V75.9024H145.127V74.3415H146.688ZM146.688 75.9024V77.4634H145.127V75.9024H146.688ZM146.688 77.4634V79.0244H145.127V77.4634H146.688ZM146.688 79.0244V80.5854H145.127V79.0244H146.688ZM151.371 64.9756V66.5366H149.81V64.9756H151.371ZM151.371 66.5366V68.0976H149.81V66.5366H151.371ZM151.371 68.0976V69.6585H149.81V68.0976H151.371ZM151.371 69.6585V71.2195H149.81V69.6585H151.371ZM151.371 71.2195V72.7805H149.81V71.2195H151.371ZM151.371 72.7805V74.3415H149.81V72.7805H151.371ZM151.371 75.9024V77.4634H149.81V75.9024H151.371ZM151.371 77.4634V79.0244H149.81V77.4634H151.371ZM151.371 79.0244V80.5854H149.81V79.0244H151.371ZM151.371 80.5854V82.1463H149.81V80.5854H151.371ZM151.371 82.1463V83.7073H149.81V82.1463H151.371ZM151.371 83.7073V85.2683H149.81V83.7073H151.371ZM151.371 85.2683V86.8293H149.81V85.2683H151.371ZM152.932 86.8293V88.3902H151.371V86.8293H152.932ZM152.932 88.3902V89.9512H151.371V88.3902H152.932ZM152.932 89.9512V91.5122H151.371V89.9512H152.932ZM152.932 85.2683V86.8293H151.371V85.2683H152.932ZM152.932 83.7073V85.2683H151.371V83.7073H152.932ZM152.932 82.1463V83.7073H151.371V82.1463H152.932ZM152.932 80.5854V82.1463H151.371V80.5854H152.932ZM152.932 79.0244V80.5854H151.371V79.0244H152.932ZM152.932 77.4634V79.0244H151.371V77.4634H152.932ZM152.932 75.9024V77.4634H151.371V75.9024H152.932ZM152.932 74.3415V75.9024H151.371V74.3415H152.932ZM152.932 72.7805V74.3415H151.371V72.7805H152.932ZM152.932 71.2195V72.7805H151.371V71.2195H152.932ZM151.371 74.3415V75.9024H149.81V74.3415H151.371ZM152.932 69.6585V71.2195H151.371V69.6585H152.932ZM152.932 68.0976V69.6585H151.371V68.0976H152.932ZM152.932 66.5366V68.0976H151.371V66.5366H152.932ZM152.932 64.9756V66.5366H151.371V64.9756H152.932ZM149.81 64.9756V66.5366H148.249V64.9756H149.81ZM148.249 64.9756V66.5366H146.688V64.9756H148.249ZM148.249 66.5366V68.0976H146.688V66.5366H148.249ZM149.81 66.5366V68.0976H148.249V66.5366H149.81ZM149.81 68.0976V69.6585H148.249V68.0976H149.81ZM149.81 69.6585V71.2195H148.249V69.6585H149.81ZM149.81 71.2195V72.7805H148.249V71.2195H149.81ZM149.81 72.7805V74.3415H148.249V72.7805H149.81ZM149.81 74.3415V75.9024H148.249V74.3415H149.81ZM149.81 75.9024V77.4634H148.249V75.9024H149.81ZM148.249 77.4634V79.0244H146.688V77.4634H148.249ZM148.249 79.0244V80.5854H146.688V79.0244H148.249ZM148.249 75.9024V77.4634H146.688V75.9024H148.249ZM148.249 74.3415V75.9024H146.688V74.3415H148.249ZM148.249 72.7805V74.3415H146.688V72.7805H148.249ZM148.249 71.2195V72.7805H146.688V71.2195H148.249ZM148.249 69.6585V71.2195H146.688V69.6585H148.249ZM148.249 68.0976V69.6585H146.688V68.0976H148.249ZM149.81 77.4634V79.0244H148.249V77.4634H149.81ZM149.81 79.0244V80.5854H148.249V79.0244H149.81ZM149.81 80.5854V82.1463H148.249V80.5854H149.81ZM149.81 82.1463V83.7073H148.249V82.1463H149.81ZM149.81 83.7073V85.2683H148.249V83.7073H149.81ZM149.81 85.2683V86.8293H148.249V85.2683H149.81ZM149.81 86.8293V88.3902H148.249V86.8293H149.81ZM149.81 88.3902V89.9512H148.249V88.3902H149.81ZM149.81 89.9512V91.5122H148.249V89.9512H149.81ZM151.371 88.3902V89.9512H149.81V88.3902H151.371ZM151.371 86.8293V88.3902H149.81V86.8293H151.371ZM145.127 64.9756V66.5366H143.566V64.9756H145.127ZM143.566 64.9756V66.5366H142.005V64.9756H143.566ZM142.005 64.9756V66.5366H140.444V64.9756H142.005ZM140.444 64.9756V66.5366H138.883V64.9756H140.444ZM138.883 64.9756V66.5366H137.322V64.9756H138.883ZM138.883 66.5366V68.0976H137.322V66.5366H138.883ZM138.883 68.0976V69.6585H137.322V68.0976H138.883ZM140.444 66.5366V68.0976H138.883V66.5366H140.444ZM142.005 66.5366V68.0976H140.444V66.5366H142.005ZM143.566 66.5366V68.0976H142.005V66.5366H143.566ZM145.127 68.0976V69.6585H143.566V68.0976H145.127ZM145.127 66.5366V68.0976H143.566V66.5366H145.127ZM143.566 68.0976V69.6585H142.005V68.0976H143.566ZM142.005 68.0976V69.6585H140.444V68.0976H142.005ZM140.444 68.0976V69.6585H138.883V68.0976H140.444ZM154.493 64.9756V66.5366H152.932V64.9756H154.493ZM156.054 64.9756V66.5366H154.493V64.9756H156.054ZM157.615 64.9756V66.5366H156.054V64.9756H157.615ZM159.176 64.9756V66.5366H157.615V64.9756H159.176ZM160.737 64.9756V66.5366H159.176V64.9756H160.737ZM160.737 66.5366V68.0976H159.176V66.5366H160.737ZM159.176 66.5366V68.0976H157.615V66.5366H159.176ZM157.615 66.5366V68.0976H156.054V66.5366H157.615ZM156.054 66.5366V68.0976H154.493V66.5366H156.054ZM154.493 66.5366V68.0976H152.932V66.5366H154.493ZM154.493 68.0976V69.6585H152.932V68.0976H154.493ZM156.054 68.0976V69.6585H154.493V68.0976H156.054ZM157.615 68.0976V69.6585H156.054V68.0976H157.615ZM159.176 68.0976V69.6585H157.615V68.0976H159.176ZM160.737 68.0976V69.6585H159.176V68.0976H160.737ZM138.883 69.6585V71.2195H137.322V69.6585H138.883ZM138.883 71.2195V72.7805H137.322V71.2195H138.883ZM140.444 71.2195V72.7805H138.883V71.2195H140.444ZM142.005 71.2195V72.7805H140.444V71.2195H142.005ZM143.566 71.2195V72.7805H142.005V71.2195H143.566ZM145.127 71.2195V72.7805H143.566V71.2195H145.127ZM145.127 69.6585V71.2195H143.566V69.6585H145.127ZM143.566 69.6585V71.2195H142.005V69.6585H143.566ZM142.005 69.6585V71.2195H140.444V69.6585H142.005ZM140.444 69.6585V71.2195H138.883V69.6585H140.444ZM160.737 69.6585V71.2195H159.176V69.6585H160.737ZM160.737 71.2195V72.7805H159.176V71.2195H160.737ZM159.176 71.2195V72.7805H157.615V71.2195H159.176ZM157.615 71.2195V72.7805H156.054V71.2195H157.615ZM156.054 71.2195V72.7805H154.493V71.2195H156.054ZM154.493 71.2195V72.7805H152.932V71.2195H154.493ZM154.493 69.6585V71.2195H152.932V69.6585H154.493ZM156.054 69.6585V71.2195H154.493V69.6585H156.054ZM157.615 69.6585V71.2195H156.054V69.6585H157.615ZM159.176 69.6585V71.2195H157.615V69.6585H159.176ZM168.571 64.9756V66.5366H167.01V64.9756H168.571ZM168.571 66.5366V68.0976H167.01V66.5366H168.571ZM168.571 68.0976V69.6585H167.01V68.0976H168.571ZM173.254 64.9756V66.5366H171.693V64.9756H173.254ZM173.254 66.5366V68.0976H171.693V66.5366H173.254ZM173.254 68.0976V69.6585H171.693V68.0976H173.254ZM174.815 68.0976V69.6585H173.254V68.0976H174.815ZM174.815 66.5366V68.0976H173.254V66.5366H174.815ZM174.815 64.9756V66.5366H173.254V64.9756H174.815ZM171.693 64.9756V66.5366H170.132V64.9756H171.693ZM170.132 64.9756V66.5366H168.571V64.9756H170.132ZM170.132 66.5366V68.0976H168.571V66.5366H170.132ZM171.693 66.5366V68.0976H170.132V66.5366H171.693ZM171.693 68.0976V69.6585H170.132V68.0976H171.693ZM170.132 68.0976V69.6585H168.571V68.0976H170.132ZM168.571 69.6585V71.2195H167.01V69.6585H168.571ZM170.132 69.6585V71.2195H168.571V69.6585H170.132ZM171.693 69.6585V71.2195H170.132V69.6585H171.693ZM173.254 69.6585V71.2195H171.693V69.6585H173.254ZM174.815 69.6585V71.2195H173.254V69.6585H174.815ZM168.571 102.439V104H167.01V102.439H168.571ZM168.571 100.878V102.439H167.01V100.878H168.571ZM168.571 99.3171V100.878H167.01V99.3171H168.571ZM168.571 97.7561V99.3171H167.01V97.7561H168.571ZM168.571 96.1951V97.7561H167.01V96.1951H168.571ZM168.571 94.6341V96.1951H167.01V94.6341H168.571ZM168.571 93.0732V94.6341H167.01V93.0732H168.571ZM168.571 91.5122V93.0732H167.01V91.5122H168.571ZM168.571 89.9512V91.5122H167.01V89.9512H168.571ZM168.571 88.3902V89.9512H167.01V88.3902H168.571ZM168.571 86.8293V88.3902H167.01V86.8293H168.571ZM168.571 85.2683V86.8293H167.01V85.2683H168.571ZM168.571 83.7073V85.2683H167.01V83.7073H168.571ZM168.571 82.1463V83.7073H167.01V82.1463H168.571ZM168.571 80.5854V82.1463H167.01V80.5854H168.571ZM170.132 80.5854V82.1463H168.571V80.5854H170.132ZM170.132 82.1463V83.7073H168.571V82.1463H170.132ZM170.132 83.7073V85.2683H168.571V83.7073H170.132ZM170.132 85.2683V86.8293H168.571V85.2683H170.132ZM170.132 86.8293V88.3902H168.571V86.8293H170.132ZM170.132 88.3902V89.9512H168.571V88.3902H170.132ZM170.132 89.9512V91.5122H168.571V89.9512H170.132ZM171.693 91.5122V93.0732H170.132V91.5122H171.693ZM171.693 93.0732V94.6341H170.132V93.0732H171.693ZM171.693 94.6341V96.1951H170.132V94.6341H171.693ZM171.693 96.1951V97.7561H170.132V96.1951H171.693ZM171.693 97.7561V99.3171H170.132V97.7561H171.693ZM171.693 99.3171V100.878H170.132V99.3171H171.693ZM171.693 100.878V102.439H170.132V100.878H171.693ZM171.693 102.439V104H170.132V102.439H171.693ZM173.254 102.439V104H171.693V102.439H173.254ZM174.815 102.439V104H173.254V102.439H174.815ZM174.815 100.878V102.439H173.254V100.878H174.815ZM174.815 99.3171V100.878H173.254V99.3171H174.815ZM174.815 97.7561V99.3171H173.254V97.7561H174.815ZM174.815 96.1951V97.7561H173.254V96.1951H174.815ZM174.815 94.6341V96.1951H173.254V94.6341H174.815ZM174.815 93.0732V94.6341H173.254V93.0732H174.815ZM174.815 91.5122V93.0732H173.254V91.5122H174.815ZM173.254 91.5122V93.0732H171.693V91.5122H173.254ZM173.254 89.9512V91.5122H171.693V89.9512H173.254ZM173.254 93.0732V94.6341H171.693V93.0732H173.254ZM173.254 94.6341V96.1951H171.693V94.6341H173.254ZM173.254 96.1951V97.7561H171.693V96.1951H173.254ZM173.254 97.7561V99.3171H171.693V97.7561H173.254ZM173.254 99.3171V100.878H171.693V99.3171H173.254ZM173.254 100.878V102.439H171.693V100.878H173.254ZM170.132 102.439V104H168.571V102.439H170.132ZM170.132 100.878V102.439H168.571V100.878H170.132ZM170.132 99.3171V100.878H168.571V99.3171H170.132ZM170.132 97.7561V99.3171H168.571V97.7561H170.132ZM170.132 96.1951V97.7561H168.571V96.1951H170.132ZM170.132 94.6341V96.1951H168.571V94.6341H170.132ZM170.132 93.0732V94.6341H168.571V93.0732H170.132ZM170.132 91.5122V93.0732H168.571V91.5122H170.132ZM168.571 77.4634V79.0244H167.01V77.4634H168.571ZM168.571 79.0244V80.5854H167.01V79.0244H168.571ZM173.254 77.4634V79.0244H171.693V77.4634H173.254ZM173.254 79.0244V80.5854H171.693V79.0244H173.254ZM173.254 80.5854V82.1463H171.693V80.5854H173.254ZM173.254 82.1463V83.7073H171.693V82.1463H173.254ZM173.254 83.7073V85.2683H171.693V83.7073H173.254ZM173.254 85.2683V86.8293H171.693V85.2683H173.254ZM174.815 86.8293V88.3902H173.254V86.8293H174.815ZM174.815 88.3902V89.9512H173.254V88.3902H174.815ZM174.815 89.9512V91.5122H173.254V89.9512H174.815ZM174.815 85.2683V86.8293H173.254V85.2683H174.815ZM174.815 83.7073V85.2683H173.254V83.7073H174.815ZM174.815 82.1463V83.7073H173.254V82.1463H174.815ZM174.815 80.5854V82.1463H173.254V80.5854H174.815ZM174.815 79.0244V80.5854H173.254V79.0244H174.815ZM174.815 77.4634V79.0244H173.254V77.4634H174.815ZM170.132 77.4634V79.0244H168.571V77.4634H170.132ZM170.132 79.0244V80.5854H168.571V79.0244H170.132ZM171.693 77.4634V79.0244H170.132V77.4634H171.693ZM171.693 79.0244V80.5854H170.132V79.0244H171.693ZM171.693 80.5854V82.1463H170.132V80.5854H171.693ZM171.693 82.1463V83.7073H170.132V82.1463H171.693ZM171.693 83.7073V85.2683H170.132V83.7073H171.693ZM171.693 85.2683V86.8293H170.132V85.2683H171.693ZM171.693 86.8293V88.3902H170.132V86.8293H171.693ZM171.693 88.3902V89.9512H170.132V88.3902H171.693ZM171.693 89.9512V91.5122H170.132V89.9512H171.693ZM173.254 88.3902V89.9512H171.693V88.3902H173.254ZM173.254 86.8293V88.3902H171.693V86.8293H173.254ZM173.254 75.9024V77.4634H171.693V75.9024H173.254ZM174.815 75.9024V77.4634H173.254V75.9024H174.815ZM171.693 75.9024V77.4634H170.132V75.9024H171.693ZM170.132 75.9024V77.4634H168.571V75.9024H170.132ZM168.571 75.9024V77.4634H167.01V75.9024H168.571ZM198.243 83.7073V85.2683H196.682V83.7073H198.243ZM199.804 83.7073V85.2683H198.243V83.7073H199.804ZM201.365 83.7073V85.2683H199.804V83.7073H201.365ZM202.926 83.7073V85.2683H201.365V83.7073H202.926ZM204.487 83.7073V85.2683H202.926V83.7073H204.487ZM204.487 82.1463V83.7073H202.926V82.1463H204.487ZM204.487 80.5854V82.1463H202.926V80.5854H204.487ZM202.926 80.5854V82.1463H201.365V80.5854H202.926ZM201.365 80.5854V82.1463H199.804V80.5854H201.365ZM199.804 80.5854V82.1463H198.243V80.5854H199.804ZM199.804 82.1463V83.7073H198.243V82.1463H199.804ZM198.243 82.1463V83.7073H196.682V82.1463H198.243ZM201.365 82.1463V83.7073H199.804V82.1463H201.365ZM202.926 82.1463V83.7073H201.365V82.1463H202.926ZM198.243 80.5854V82.1463H196.682V80.5854H198.243ZM196.682 80.5854V82.1463H195.121V80.5854H196.682ZM196.682 79.0244V80.5854H195.121V79.0244H196.682ZM198.243 79.0244V80.5854H196.682V79.0244H198.243ZM199.804 79.0244V80.5854H198.243V79.0244H199.804ZM201.365 79.0244V80.5854H199.804V79.0244H201.365ZM202.926 79.0244V80.5854H201.365V79.0244H202.926ZM202.926 77.4634V79.0244H201.365V77.4634H202.926ZM201.365 77.4634V79.0244H199.804V77.4634H201.365ZM199.804 77.4634V79.0244H198.243V77.4634H199.804ZM198.243 77.4634V79.0244H196.682V77.4634H198.243ZM196.682 77.4634V79.0244H195.121V77.4634H196.682ZM199.804 75.9024V77.4634H198.243V75.9024H199.804ZM201.365 75.9024V77.4634H199.804V75.9024H201.365ZM198.243 75.9024V77.4634H196.682V75.9024H198.243ZM198.243 74.3415V75.9024H196.682V74.3415H198.243ZM196.682 74.3415V75.9024H195.121V74.3415H196.682ZM196.682 75.9024V77.4634H195.121V75.9024H196.682ZM195.121 75.9024V77.4634H193.56V75.9024H195.121ZM195.121 74.3415V75.9024H193.56V74.3415H195.121ZM195.121 77.4634V79.0244H193.56V77.4634H195.121ZM193.56 77.4634V79.0244H191.999V77.4634H193.56ZM193.56 79.0244V80.5854H191.999V79.0244H193.56ZM195.121 79.0244V80.5854H193.56V79.0244H195.121ZM191.999 79.0244V80.5854H190.438V79.0244H191.999ZM191.999 77.4634V79.0244H190.438V77.4634H191.999ZM191.999 75.9024V77.4634H190.438V75.9024H191.999ZM191.999 74.3415V75.9024H190.438V74.3415H191.999ZM193.56 74.3415V75.9024H191.999V74.3415H193.56ZM193.56 75.9024V77.4634H191.999V75.9024H193.56ZM190.438 74.3415V75.9024H188.877V74.3415H190.438ZM188.877 74.3415V75.9024H187.316V74.3415H188.877ZM187.316 74.3415V75.9024H185.755V74.3415H187.316ZM187.316 75.9024V77.4634H185.755V75.9024H187.316ZM187.316 77.4634V79.0244H185.755V77.4634H187.316ZM187.316 79.0244V80.5854H185.755V79.0244H187.316ZM188.877 79.0244V80.5854H187.316V79.0244H188.877ZM190.438 79.0244V80.5854H188.877V79.0244H190.438ZM190.438 77.4634V79.0244H188.877V77.4634H190.438ZM190.438 75.9024V77.4634H188.877V75.9024H190.438ZM188.877 75.9024V77.4634H187.316V75.9024H188.877ZM188.877 77.4634V79.0244H187.316V77.4634H188.877ZM185.755 77.4634V79.0244H184.194V77.4634H185.755ZM185.755 75.9024V77.4634H184.194V75.9024H185.755ZM184.194 75.9024V77.4634H182.633V75.9024H184.194ZM184.194 77.4634V79.0244H182.633V77.4634H184.194ZM182.633 77.4634V79.0244H181.072V77.4634H182.633ZM182.633 79.0244V80.5854H181.072V79.0244H182.633ZM182.633 80.5854V82.1463H181.072V80.5854H182.633ZM184.194 80.5854V82.1463H182.633V80.5854H184.194ZM184.194 79.0244V80.5854H182.633V79.0244H184.194ZM185.755 79.0244V80.5854H184.194V79.0244H185.755ZM185.755 80.5854V82.1463H184.194V80.5854H185.755ZM187.316 80.5854V82.1463H185.755V80.5854H187.316ZM188.877 80.5854V82.1463H187.316V80.5854H188.877ZM181.072 80.5854V82.1463H179.511V80.5854H181.072ZM181.072 82.1463V83.7073H179.511V82.1463H181.072ZM181.072 83.7073V85.2683H179.511V83.7073H181.072ZM181.072 85.2683V86.8293H179.511V85.2683H181.072ZM181.072 86.8293V88.3902H179.511V86.8293H181.072ZM181.072 88.3902V89.9512H179.511V88.3902H181.072ZM181.072 89.9512V91.5122H179.511V89.9512H181.072ZM181.072 91.5122V93.0732H179.511V91.5122H181.072ZM181.072 93.0732V94.6341H179.511V93.0732H181.072ZM181.072 94.6341V96.1951H179.511V94.6341H181.072ZM182.633 94.6341V96.1951H181.072V94.6341H182.633ZM182.633 96.1951V97.7561H181.072V96.1951H182.633ZM181.072 96.1951V97.7561H179.511V96.1951H181.072ZM184.194 96.1951V97.7561H182.633V96.1951H184.194ZM185.755 96.1951V97.7561H184.194V96.1951H185.755ZM187.316 96.1951V97.7561H185.755V96.1951H187.316ZM188.877 96.1951V97.7561H187.316V96.1951H188.877ZM187.316 94.6341V96.1951H185.755V94.6341H187.316ZM187.316 93.0732V94.6341H185.755V93.0732H187.316ZM187.316 91.5122V93.0732H185.755V91.5122H187.316ZM187.316 89.9512V91.5122H185.755V89.9512H187.316ZM187.316 88.3902V89.9512H185.755V88.3902H187.316ZM187.316 86.8293V88.3902H185.755V86.8293H187.316ZM187.316 85.2683V86.8293H185.755V85.2683H187.316ZM187.316 83.7073V85.2683H185.755V83.7073H187.316ZM187.316 82.1463V83.7073H185.755V82.1463H187.316ZM185.755 82.1463V83.7073H184.194V82.1463H185.755ZM184.194 82.1463V83.7073H182.633V82.1463H184.194ZM182.633 82.1463V83.7073H181.072V82.1463H182.633ZM182.633 83.7073V85.2683H181.072V83.7073H182.633ZM182.633 85.2683V86.8293H181.072V85.2683H182.633ZM182.633 86.8293V88.3902H181.072V86.8293H182.633ZM182.633 88.3902V89.9512H181.072V88.3902H182.633ZM182.633 89.9512V91.5122H181.072V89.9512H182.633ZM182.633 91.5122V93.0732H181.072V91.5122H182.633ZM182.633 93.0732V94.6341H181.072V93.0732H182.633ZM184.194 94.6341V96.1951H182.633V94.6341H184.194ZM185.755 94.6341V96.1951H184.194V94.6341H185.755ZM185.755 93.0732V94.6341H184.194V93.0732H185.755ZM185.755 91.5122V93.0732H184.194V91.5122H185.755ZM185.755 89.9512V91.5122H184.194V89.9512H185.755ZM185.755 88.3902V89.9512H184.194V88.3902H185.755ZM184.194 88.3902V89.9512H182.633V88.3902H184.194ZM184.194 86.8293V88.3902H182.633V86.8293H184.194ZM184.194 85.2683V86.8293H182.633V85.2683H184.194ZM184.194 83.7073V85.2683H182.633V83.7073H184.194ZM185.755 83.7073V85.2683H184.194V83.7073H185.755ZM185.755 85.2683V86.8293H184.194V85.2683H185.755ZM185.755 86.8293V88.3902H184.194V86.8293H185.755ZM184.194 91.5122V93.0732H182.633V91.5122H184.194ZM184.194 93.0732V94.6341H182.633V93.0732H184.194ZM184.194 89.9512V91.5122H182.633V89.9512H184.194ZM198.243 93.0732V94.6341H196.682V93.0732H198.243ZM198.243 94.6341V96.1951H196.682V94.6341H198.243ZM199.804 94.6341V96.1951H198.243V94.6341H199.804ZM201.365 94.6341V96.1951H199.804V94.6341H201.365ZM202.926 94.6341V96.1951H201.365V94.6341H202.926ZM204.487 94.6341V96.1951H202.926V94.6341H204.487ZM204.487 93.0732V94.6341H202.926V93.0732H204.487ZM202.926 93.0732V94.6341H201.365V93.0732H202.926ZM201.365 93.0732V94.6341H199.804V93.0732H201.365ZM199.804 93.0732V94.6341H198.243V93.0732H199.804ZM204.487 96.1951V97.7561H202.926V96.1951H204.487ZM202.926 96.1951V97.7561H201.365V96.1951H202.926ZM201.365 96.1951V97.7561H199.804V96.1951H201.365ZM199.804 96.1951V97.7561H198.243V96.1951H199.804ZM198.243 96.1951V97.7561H196.682V96.1951H198.243ZM196.682 96.1951V97.7561H195.121V96.1951H196.682ZM196.682 97.7561V99.3171H195.121V97.7561H196.682ZM198.243 97.7561V99.3171H196.682V97.7561H198.243ZM199.804 97.7561V99.3171H198.243V97.7561H199.804ZM201.365 97.7561V99.3171H199.804V97.7561H201.365ZM201.365 99.3171V100.878H199.804V99.3171H201.365ZM202.926 99.3171V100.878H201.365V99.3171H202.926ZM202.926 97.7561V99.3171H201.365V97.7561H202.926ZM201.365 100.878V102.439H199.804V100.878H201.365ZM199.804 100.878V102.439H198.243V100.878H199.804ZM199.804 99.3171V100.878H198.243V99.3171H199.804ZM198.243 99.3171V100.878H196.682V99.3171H198.243ZM198.243 100.878V102.439H196.682V100.878H198.243ZM198.243 102.439V104H196.682V102.439H198.243ZM196.682 102.439V104H195.121V102.439H196.682ZM195.121 102.439V104H193.56V102.439H195.121ZM193.56 102.439V104H191.999V102.439H193.56ZM191.999 102.439V104H190.438V102.439H191.999ZM190.438 102.439V104H188.877V102.439H190.438ZM188.877 102.439V104H187.316V102.439H188.877ZM187.316 102.439V104H185.755V102.439H187.316ZM188.877 100.878V102.439H187.316V100.878H188.877ZM190.438 100.878V102.439H188.877V100.878H190.438ZM191.999 100.878V102.439H190.438V100.878H191.999ZM193.56 100.878V102.439H191.999V100.878H193.56ZM195.121 100.878V102.439H193.56V100.878H195.121ZM196.682 100.878V102.439H195.121V100.878H196.682ZM196.682 99.3171V100.878H195.121V99.3171H196.682ZM195.121 99.3171V100.878H193.56V99.3171H195.121ZM193.56 99.3171V100.878H191.999V99.3171H193.56ZM191.999 99.3171V100.878H190.438V99.3171H191.999ZM190.438 99.3171V100.878H188.877V99.3171H190.438ZM188.877 99.3171V100.878H187.316V99.3171H188.877ZM187.316 100.878V102.439H185.755V100.878H187.316ZM185.755 100.878V102.439H184.194V100.878H185.755ZM184.194 100.878V102.439H182.633V100.878H184.194ZM184.194 99.3171V100.878H182.633V99.3171H184.194ZM182.633 99.3171V100.878H181.072V99.3171H182.633ZM182.633 97.7561V99.3171H181.072V97.7561H182.633ZM184.194 97.7561V99.3171H182.633V97.7561H184.194ZM185.755 97.7561V99.3171H184.194V97.7561H185.755ZM187.316 97.7561V99.3171H185.755V97.7561H187.316ZM188.877 97.7561V99.3171H187.316V97.7561H188.877ZM190.438 97.7561V99.3171H188.877V97.7561H190.438ZM191.999 97.7561V99.3171H190.438V97.7561H191.999ZM193.56 97.7561V99.3171H191.999V97.7561H193.56ZM195.121 97.7561V99.3171H193.56V97.7561H195.121ZM187.316 99.3171V100.878H185.755V99.3171H187.316ZM185.755 99.3171V100.878H184.194V99.3171H185.755ZM210.758 102.439V104H209.197V102.439H210.758ZM210.758 100.878V102.439H209.197V100.878H210.758ZM210.758 99.3171V100.878H209.197V99.3171H210.758ZM210.758 97.7561V99.3171H209.197V97.7561H210.758ZM210.758 96.1951V97.7561H209.197V96.1951H210.758ZM210.758 94.6341V96.1951H209.197V94.6341H210.758ZM210.758 93.0732V94.6341H209.197V93.0732H210.758ZM210.758 91.5122V93.0732H209.197V91.5122H210.758ZM210.758 89.9512V91.5122H209.197V89.9512H210.758ZM210.758 88.3902V89.9512H209.197V88.3902H210.758ZM210.758 86.8293V88.3902H209.197V86.8293H210.758ZM210.758 85.2683V86.8293H209.197V85.2683H210.758ZM210.758 83.7073V85.2683H209.197V83.7073H210.758ZM210.758 82.1463V83.7073H209.197V82.1463H210.758ZM210.758 80.5854V82.1463H209.197V80.5854H210.758ZM212.319 80.5854V82.1463H210.758V80.5854H212.319ZM212.319 82.1463V83.7073H210.758V82.1463H212.319ZM212.319 83.7073V85.2683H210.758V83.7073H212.319ZM212.319 85.2683V86.8293H210.758V85.2683H212.319ZM212.319 86.8293V88.3902H210.758V86.8293H212.319ZM212.319 88.3902V89.9512H210.758V88.3902H212.319ZM212.319 89.9512V91.5122H210.758V89.9512H212.319ZM213.88 91.5122V93.0732H212.319V91.5122H213.88ZM213.88 93.0732V94.6341H212.319V93.0732H213.88ZM213.88 94.6341V96.1951H212.319V94.6341H213.88ZM213.88 96.1951V97.7561H212.319V96.1951H213.88ZM213.88 97.7561V99.3171H212.319V97.7561H213.88ZM213.88 99.3171V100.878H212.319V99.3171H213.88ZM213.88 100.878V102.439H212.319V100.878H213.88ZM213.88 102.439V104H212.319V102.439H213.88ZM215.441 102.439V104H213.88V102.439H215.441ZM217.002 102.439V104H215.441V102.439H217.002ZM217.002 100.878V102.439H215.441V100.878H217.002ZM217.002 99.3171V100.878H215.441V99.3171H217.002ZM217.002 97.7561V99.3171H215.441V97.7561H217.002ZM217.002 96.1951V97.7561H215.441V96.1951H217.002ZM217.002 94.6341V96.1951H215.441V94.6341H217.002ZM217.002 93.0732V94.6341H215.441V93.0732H217.002ZM217.002 91.5122V93.0732H215.441V91.5122H217.002ZM215.441 91.5122V93.0732H213.88V91.5122H215.441ZM215.441 89.9512V91.5122H213.88V89.9512H215.441ZM215.441 93.0732V94.6341H213.88V93.0732H215.441ZM215.441 94.6341V96.1951H213.88V94.6341H215.441ZM215.441 96.1951V97.7561H213.88V96.1951H215.441ZM215.441 97.7561V99.3171H213.88V97.7561H215.441ZM215.441 99.3171V100.878H213.88V99.3171H215.441ZM215.441 100.878V102.439H213.88V100.878H215.441ZM212.319 102.439V104H210.758V102.439H212.319ZM212.319 100.878V102.439H210.758V100.878H212.319ZM212.319 99.3171V100.878H210.758V99.3171H212.319ZM212.319 97.7561V99.3171H210.758V97.7561H212.319ZM212.319 96.1951V97.7561H210.758V96.1951H212.319ZM212.319 94.6341V96.1951H210.758V94.6341H212.319ZM212.319 93.0732V94.6341H210.758V93.0732H212.319ZM212.319 91.5122V93.0732H210.758V91.5122H212.319ZM210.758 64.9756V66.5366H209.197V64.9756H210.758ZM210.758 66.5366V68.0976H209.197V66.5366H210.758ZM210.758 68.0976V69.6585H209.197V68.0976H210.758ZM210.758 69.6585V71.2195H209.197V69.6585H210.758ZM210.758 71.2195V72.7805H209.197V71.2195H210.758ZM210.758 72.7805V74.3415H209.197V72.7805H210.758ZM210.758 74.3415V75.9024H209.197V74.3415H210.758ZM210.758 75.9024V77.4634H209.197V75.9024H210.758ZM210.758 77.4634V79.0244H209.197V77.4634H210.758ZM210.758 79.0244V80.5854H209.197V79.0244H210.758ZM215.441 64.9756V66.5366H213.88V64.9756H215.441ZM215.441 66.5366V68.0976H213.88V66.5366H215.441ZM215.441 68.0976V69.6585H213.88V68.0976H215.441ZM215.441 69.6585V71.2195H213.88V69.6585H215.441ZM215.441 71.2195V72.7805H213.88V71.2195H215.441ZM215.441 72.7805V74.3415H213.88V72.7805H215.441ZM215.441 75.9024V77.4634H213.88V75.9024H215.441ZM215.441 77.4634V79.0244H213.88V77.4634H215.441ZM215.441 79.0244V80.5854H213.88V79.0244H215.441ZM215.441 80.5854V82.1463H213.88V80.5854H215.441ZM215.441 82.1463V83.7073H213.88V82.1463H215.441ZM215.441 83.7073V85.2683H213.88V83.7073H215.441ZM215.441 85.2683V86.8293H213.88V85.2683H215.441ZM217.002 86.8293V88.3902H215.441V86.8293H217.002ZM217.002 88.3902V89.9512H215.441V88.3902H217.002ZM217.002 89.9512V91.5122H215.441V89.9512H217.002ZM217.002 85.2683V86.8293H215.441V85.2683H217.002ZM217.002 83.7073V85.2683H215.441V83.7073H217.002ZM217.002 82.1463V83.7073H215.441V82.1463H217.002ZM217.002 80.5854V82.1463H215.441V80.5854H217.002ZM217.002 79.0244V80.5854H215.441V79.0244H217.002ZM217.002 77.4634V79.0244H215.441V77.4634H217.002ZM217.002 75.9024V77.4634H215.441V75.9024H217.002ZM217.002 74.3415V75.9024H215.441V74.3415H217.002ZM217.002 72.7805V74.3415H215.441V72.7805H217.002ZM217.002 71.2195V72.7805H215.441V71.2195H217.002ZM215.441 74.3415V75.9024H213.88V74.3415H215.441ZM217.002 69.6585V71.2195H215.441V69.6585H217.002ZM217.002 68.0976V69.6585H215.441V68.0976H217.002ZM217.002 66.5366V68.0976H215.441V66.5366H217.002ZM217.002 64.9756V66.5366H215.441V64.9756H217.002ZM213.88 64.9756V66.5366H212.319V64.9756H213.88ZM212.319 64.9756V66.5366H210.758V64.9756H212.319ZM212.319 66.5366V68.0976H210.758V66.5366H212.319ZM213.88 66.5366V68.0976H212.319V66.5366H213.88ZM213.88 68.0976V69.6585H212.319V68.0976H213.88ZM213.88 69.6585V71.2195H212.319V69.6585H213.88ZM213.88 71.2195V72.7805H212.319V71.2195H213.88ZM213.88 72.7805V74.3415H212.319V72.7805H213.88ZM213.88 74.3415V75.9024H212.319V74.3415H213.88ZM213.88 75.9024V77.4634H212.319V75.9024H213.88ZM212.319 77.4634V79.0244H210.758V77.4634H212.319ZM212.319 79.0244V80.5854H210.758V79.0244H212.319ZM212.319 75.9024V77.4634H210.758V75.9024H212.319ZM212.319 74.3415V75.9024H210.758V74.3415H212.319ZM212.319 72.7805V74.3415H210.758V72.7805H212.319ZM212.319 71.2195V72.7805H210.758V71.2195H212.319ZM212.319 69.6585V71.2195H210.758V69.6585H212.319ZM212.319 68.0976V69.6585H210.758V68.0976H212.319ZM213.88 77.4634V79.0244H212.319V77.4634H213.88ZM213.88 79.0244V80.5854H212.319V79.0244H213.88ZM213.88 80.5854V82.1463H212.319V80.5854H213.88ZM213.88 82.1463V83.7073H212.319V82.1463H213.88ZM213.88 83.7073V85.2683H212.319V83.7073H213.88ZM213.88 85.2683V86.8293H212.319V85.2683H213.88ZM213.88 86.8293V88.3902H212.319V86.8293H213.88ZM213.88 88.3902V89.9512H212.319V88.3902H213.88ZM213.88 89.9512V91.5122H212.319V89.9512H213.88ZM215.441 88.3902V89.9512H213.88V88.3902H215.441ZM215.441 86.8293V88.3902H213.88V86.8293H215.441ZM224.807 75.9024V77.4634H223.246V75.9024H224.807ZM224.807 74.3415V75.9024H223.246V74.3415H224.807ZM226.368 74.3415V75.9024H224.807V74.3415H226.368ZM227.929 74.3415V75.9024H226.368V74.3415H227.929ZM229.49 74.3415V75.9024H227.929V74.3415H229.49ZM231.051 74.3415V75.9024H229.49V74.3415H231.051ZM231.051 75.9024V77.4634H229.49V75.9024H231.051ZM231.051 77.4634V79.0244H229.49V77.4634H231.051ZM231.051 79.0244V80.5854H229.49V79.0244H231.051ZM231.051 80.5854V82.1463H229.49V80.5854H231.051ZM229.49 80.5854V82.1463H227.929V80.5854H229.49ZM229.49 82.1463V83.7073H227.929V82.1463H229.49ZM227.929 82.1463V83.7073H226.368V82.1463H227.929ZM227.929 83.7073V85.2683H226.368V83.7073H227.929ZM226.368 83.7073V85.2683H224.807V83.7073H226.368ZM226.368 85.2683V86.8293H224.807V85.2683H226.368ZM224.807 85.2683V86.8293H223.246V85.2683H224.807ZM224.807 86.8293V88.3902H223.246V86.8293H224.807ZM224.807 88.3902V89.9512H223.246V88.3902H224.807ZM226.368 88.3902V89.9512H224.807V88.3902H226.368ZM226.368 89.9512V91.5122H224.807V89.9512H226.368ZM227.929 89.9512V91.5122H226.368V89.9512H227.929ZM227.929 91.5122V93.0732H226.368V91.5122H227.929ZM229.49 91.5122V93.0732H227.929V91.5122H229.49ZM229.49 93.0732V94.6341H227.929V93.0732H229.49ZM231.051 93.0732V94.6341H229.49V93.0732H231.051ZM231.051 94.6341V96.1951H229.49V94.6341H231.051ZM231.051 96.1951V97.7561H229.49V96.1951H231.051ZM231.051 97.7561V99.3171H229.49V97.7561H231.051ZM231.051 99.3171V100.878H229.49V99.3171H231.051ZM231.051 100.878V102.439H229.49V100.878H231.051ZM231.051 102.439V104H229.49V102.439H231.051ZM224.807 77.4634V79.0244H223.246V77.4634H224.807ZM224.807 79.0244V80.5854H223.246V79.0244H224.807ZM224.807 80.5854V82.1463H223.246V80.5854H224.807ZM223.246 80.5854V82.1463H221.685V80.5854H223.246ZM224.807 82.1463V83.7073H223.246V82.1463H224.807ZM223.246 82.1463V83.7073H221.685V82.1463H223.246ZM223.246 83.7073V85.2683H221.685V83.7073H223.246ZM221.685 82.1463V83.7073H220.124V82.1463H221.685ZM221.685 83.7073V85.2683H220.124V83.7073H221.685ZM223.246 85.2683V86.8293H221.685V85.2683H223.246ZM224.807 83.7073V85.2683H223.246V83.7073H224.807ZM226.368 82.1463V83.7073H224.807V82.1463H226.368ZM227.929 80.5854V82.1463H226.368V80.5854H227.929ZM229.49 79.0244V80.5854H227.929V79.0244H229.49ZM229.49 77.4634V79.0244H227.929V77.4634H229.49ZM229.49 75.9024V77.4634H227.929V75.9024H229.49ZM227.929 75.9024V77.4634H226.368V75.9024H227.929ZM226.368 77.4634V79.0244H224.807V77.4634H226.368ZM226.368 79.0244V80.5854H224.807V79.0244H226.368ZM226.368 80.5854V82.1463H224.807V80.5854H226.368ZM227.929 79.0244V80.5854H226.368V79.0244H227.929ZM227.929 77.4634V79.0244H226.368V77.4634H227.929ZM226.368 75.9024V77.4634H224.807V75.9024H226.368ZM220.124 83.7073V85.2683H218.563V83.7073H220.124ZM218.563 83.7073V85.2683H217.002V83.7073H218.563ZM218.563 85.2683V86.8293H217.002V85.2683H218.563ZM218.563 86.8293V88.3902H217.002V86.8293H218.563ZM218.563 88.3902V89.9512H217.002V88.3902H218.563ZM220.124 88.3902V89.9512H218.563V88.3902H220.124ZM220.124 89.9512V91.5122H218.563V89.9512H220.124ZM218.563 89.9512V91.5122H217.002V89.9512H218.563ZM221.685 89.9512V91.5122H220.124V89.9512H221.685ZM221.685 91.5122V93.0732H220.124V91.5122H221.685ZM223.246 91.5122V93.0732H221.685V91.5122H223.246ZM223.246 93.0732V94.6341H221.685V93.0732H223.246ZM224.807 93.0732V94.6341H223.246V93.0732H224.807ZM224.807 94.6341V96.1951H223.246V94.6341H224.807ZM226.368 96.1951V97.7561H224.807V96.1951H226.368ZM226.368 97.7561V99.3171H224.807V97.7561H226.368ZM226.368 99.3171V100.878H224.807V99.3171H226.368ZM224.807 99.3171V100.878H223.246V99.3171H224.807ZM224.807 97.7561V99.3171H223.246V97.7561H224.807ZM224.807 96.1951V97.7561H223.246V96.1951H224.807ZM224.807 100.878V102.439H223.246V100.878H224.807ZM224.807 102.439V104H223.246V102.439H224.807ZM226.368 102.439V104H224.807V102.439H226.368ZM227.929 102.439V104H226.368V102.439H227.929ZM229.49 102.439V104H227.929V102.439H229.49ZM229.49 100.878V102.439H227.929V100.878H229.49ZM227.929 100.878V102.439H226.368V100.878H227.929ZM226.368 100.878V102.439H224.807V100.878H226.368ZM227.929 99.3171V100.878H226.368V99.3171H227.929ZM229.49 99.3171V100.878H227.929V99.3171H229.49ZM229.49 97.7561V99.3171H227.929V97.7561H229.49ZM229.49 96.1951V97.7561H227.929V96.1951H229.49ZM229.49 94.6341V96.1951H227.929V94.6341H229.49ZM227.929 94.6341V96.1951H226.368V94.6341H227.929ZM227.929 96.1951V97.7561H226.368V96.1951H227.929ZM227.929 97.7561V99.3171H226.368V97.7561H227.929ZM227.929 93.0732V94.6341H226.368V93.0732H227.929ZM226.368 93.0732V94.6341H224.807V93.0732H226.368ZM226.368 91.5122V93.0732H224.807V91.5122H226.368ZM224.807 91.5122V93.0732H223.246V91.5122H224.807ZM224.807 89.9512V91.5122H223.246V89.9512H224.807ZM223.246 89.9512V91.5122H221.685V89.9512H223.246ZM223.246 88.3902V89.9512H221.685V88.3902H223.246ZM223.246 86.8293V88.3902H221.685V86.8293H223.246ZM221.685 86.8293V88.3902H220.124V86.8293H221.685ZM221.685 85.2683V86.8293H220.124V85.2683H221.685ZM220.124 85.2683V86.8293H218.563V85.2683H220.124ZM220.124 86.8293V88.3902H218.563V86.8293H220.124ZM221.685 88.3902V89.9512H220.124V88.3902H221.685ZM226.368 94.6341V96.1951H224.807V94.6341H226.368Z" fill="white"/>
<path d="M126.22 102.439V104H124.659V102.439H126.22ZM127.78 102.439V104H126.22V102.439H127.78ZM129.341 102.439V104H127.78V102.439H129.341ZM130.902 102.439V104H129.341V102.439H130.902ZM132.463 102.439V104H130.902V102.439H132.463ZM134.024 102.439V104H132.463V102.439H134.024ZM132.463 100.878V102.439H130.902V100.878H132.463ZM130.902 100.878V102.439H129.341V100.878H130.902ZM130.902 99.3171V100.878H129.341V99.3171H130.902ZM129.341 99.3171V100.878H127.78V99.3171H129.341ZM129.341 97.7561V99.3171H127.78V97.7561H129.341ZM127.78 97.7561V99.3171H126.22V97.7561H127.78ZM127.78 96.1951V97.7561H126.22V96.1951H127.78ZM126.22 96.1951V97.7561H124.659V96.1951H126.22ZM124.659 96.1951V97.7561H123.098V96.1951H124.659ZM124.659 97.7561V99.3171H123.098V97.7561H124.659ZM124.659 99.3171V100.878H123.098V99.3171H124.659ZM124.659 100.878V102.439H123.098V100.878H124.659ZM126.22 100.878V102.439H124.659V100.878H126.22ZM127.78 100.878V102.439H126.22V100.878H127.78ZM129.341 100.878V102.439H127.78V100.878H129.341ZM127.78 99.3171V100.878H126.22V99.3171H127.78ZM126.22 97.7561V99.3171H124.659V97.7561H126.22ZM126.22 99.3171V100.878H124.659V99.3171H126.22ZM123.098 99.3171V100.878H121.537V99.3171H123.098ZM121.537 99.3171V100.878H119.976V99.3171H121.537ZM119.976 100.878V102.439H118.415V100.878H119.976ZM118.415 102.439V104H116.854V102.439H118.415ZM116.854 102.439V104H115.293V102.439H116.854ZM115.293 102.439V104H113.732V102.439H115.293ZM113.732 102.439V104H112.171V102.439H113.732ZM112.171 102.439V104H110.61V102.439H112.171ZM110.61 102.439V104H109.049V102.439H110.61ZM109.049 102.439V104H107.488V102.439H109.049ZM107.488 102.439V104H105.927V102.439H107.488ZM105.927 102.439V104H104.366V102.439H105.927ZM105.927 100.878V102.439H104.366V100.878H105.927ZM105.927 99.3171V100.878H104.366V99.3171H105.927ZM107.488 99.3171V100.878H105.927V99.3171H107.488ZM107.488 97.7561V99.3171H105.927V97.7561H107.488ZM109.049 97.7561V99.3171H107.488V97.7561H109.049ZM110.61 97.7561V99.3171H109.049V97.7561H110.61ZM112.171 97.7561V99.3171H110.61V97.7561H112.171ZM112.171 99.3171V100.878H110.61V99.3171H112.171ZM110.61 99.3171V100.878H109.049V99.3171H110.61ZM109.049 96.1951V97.7561H107.488V96.1951H109.049ZM107.488 100.878V102.439H105.927V100.878H107.488ZM109.049 100.878V102.439H107.488V100.878H109.049ZM113.732 99.3171V100.878H112.171V99.3171H113.732ZM115.293 99.3171V100.878H113.732V99.3171H115.293ZM116.854 99.3171V100.878H115.293V99.3171H116.854ZM118.415 99.3171V100.878H116.854V99.3171H118.415ZM118.415 100.878V102.439H116.854V100.878H118.415ZM116.854 100.878V102.439H115.293V100.878H116.854ZM110.61 100.878V102.439H109.049V100.878H110.61ZM109.049 99.3171V100.878H107.488V99.3171H109.049ZM113.732 100.878V102.439H112.171V100.878H113.732ZM115.293 100.878V102.439H113.732V100.878H115.293ZM112.171 100.878V102.439H110.61V100.878H112.171ZM110.61 96.1951V97.7561H109.049V96.1951H110.61ZM112.171 96.1951V97.7561H110.61V96.1951H112.171ZM113.732 96.1951V97.7561H112.171V96.1951H113.732ZM115.293 96.1951V97.7561H113.732V96.1951H115.293ZM116.854 96.1951V97.7561H115.293V96.1951H116.854ZM118.415 96.1951V97.7561H116.854V96.1951H118.415ZM119.976 96.1951V97.7561H118.415V96.1951H119.976ZM119.976 97.7561V99.3171H118.415V97.7561H119.976ZM118.415 97.7561V99.3171H116.854V97.7561H118.415ZM113.732 97.7561V99.3171H112.171V97.7561H113.732ZM115.293 97.7561V99.3171H113.732V97.7561H115.293ZM116.854 97.7561V99.3171H115.293V97.7561H116.854ZM119.976 99.3171V100.878H118.415V99.3171H119.976ZM121.537 97.7561V99.3171H119.976V97.7561H121.537ZM123.098 97.7561V99.3171H121.537V97.7561H123.098ZM123.098 96.1951V97.7561H121.537V96.1951H123.098ZM121.537 96.1951V97.7561H119.976V96.1951H121.537ZM126.22 83.7073V85.2683H124.659V83.7073H126.22ZM127.78 83.7073V85.2683H126.22V83.7073H127.78ZM129.341 83.7073V85.2683H127.78V83.7073H129.341ZM130.902 83.7073V85.2683H129.341V83.7073H130.902ZM130.902 85.2683V86.8293H129.341V85.2683H130.902ZM130.902 86.8293V88.3902H129.341V86.8293H130.902ZM130.902 88.3902V89.9512H129.341V88.3902H130.902ZM129.341 88.3902V89.9512H127.78V88.3902H129.341ZM129.341 86.8293V88.3902H127.78V86.8293H129.341ZM129.341 85.2683V86.8293H127.78V85.2683H129.341ZM127.78 85.2683V86.8293H126.22V85.2683H127.78ZM126.22 85.2683V86.8293H124.659V85.2683H126.22ZM126.22 86.8293V88.3902H124.659V86.8293H126.22ZM126.22 88.3902V89.9512H124.659V88.3902H126.22ZM126.22 89.9512V91.5122H124.659V89.9512H126.22ZM127.78 89.9512V91.5122H126.22V89.9512H127.78ZM129.341 89.9512V91.5122H127.78V89.9512H129.341ZM127.78 86.8293V88.3902H126.22V86.8293H127.78ZM127.78 88.3902V89.9512H126.22V88.3902H127.78ZM129.341 91.5122V93.0732H127.78V91.5122H129.341ZM127.78 91.5122V93.0732H126.22V91.5122H127.78ZM126.22 91.5122V93.0732H124.659V91.5122H126.22ZM126.22 93.0732V94.6341H124.659V93.0732H126.22ZM127.78 93.0732V94.6341H126.22V93.0732H127.78ZM126.22 94.6341V96.1951H124.659V94.6341H126.22ZM124.659 89.9512V91.5122H123.098V89.9512H124.659ZM124.659 88.3902V89.9512H123.098V88.3902H124.659ZM124.659 91.5122V93.0732H123.098V91.5122H124.659ZM124.659 93.0732V94.6341H123.098V93.0732H124.659ZM123.098 93.0732V94.6341H121.537V93.0732H123.098ZM123.098 91.5122V93.0732H121.537V91.5122H123.098ZM123.098 89.9512V91.5122H121.537V89.9512H123.098ZM123.098 94.6341V96.1951H121.537V94.6341H123.098ZM124.659 94.6341V96.1951H123.098V94.6341H124.659ZM121.537 94.6341V96.1951H119.976V94.6341H121.537ZM119.976 94.6341V96.1951H118.415V94.6341H119.976ZM118.415 94.6341V96.1951H116.854V94.6341H118.415ZM116.854 94.6341V96.1951H115.293V94.6341H116.854ZM119.976 93.0732V94.6341H118.415V93.0732H119.976ZM119.976 91.5122V93.0732H118.415V91.5122H119.976ZM118.415 93.0732V94.6341H116.854V93.0732H118.415ZM121.537 91.5122V93.0732H119.976V91.5122H121.537ZM121.537 89.9512V91.5122H119.976V89.9512H121.537ZM121.537 93.0732V94.6341H119.976V93.0732H121.537ZM110.61 86.8293V88.3902H109.049V86.8293H110.61ZM112.171 86.8293V88.3902H110.61V86.8293H112.171ZM113.732 86.8293V88.3902H112.171V86.8293H113.732ZM113.732 88.3902V89.9512H112.171V88.3902H113.732ZM115.293 88.3902V89.9512H113.732V88.3902H115.293ZM115.293 89.9512V91.5122H113.732V89.9512H115.293ZM116.854 89.9512V91.5122H115.293V89.9512H116.854ZM118.415 89.9512V91.5122H116.854V89.9512H118.415ZM118.415 91.5122V93.0732H116.854V91.5122H118.415ZM116.854 91.5122V93.0732H115.293V91.5122H116.854ZM119.976 88.3902V89.9512H118.415V88.3902H119.976ZM119.976 89.9512V91.5122H118.415V89.9512H119.976ZM119.976 86.8293V88.3902H118.415V86.8293H119.976ZM118.415 86.8293V88.3902H116.854V86.8293H118.415ZM118.415 85.2683V86.8293H116.854V85.2683H118.415ZM116.854 85.2683V86.8293H115.293V85.2683H116.854ZM116.854 83.7073V85.2683H115.293V83.7073H116.854ZM115.293 83.7073V85.2683H113.732V83.7073H115.293ZM113.732 83.7073V85.2683H112.171V83.7073H113.732ZM112.171 83.7073V85.2683H110.61V83.7073H112.171ZM110.61 83.7073V85.2683H109.049V83.7073H110.61ZM109.049 83.7073V85.2683H107.488V83.7073H109.049ZM107.488 83.7073V85.2683H105.927V83.7073H107.488ZM107.488 85.2683V86.8293H105.927V85.2683H107.488ZM109.049 85.2683V86.8293H107.488V85.2683H109.049ZM110.61 85.2683V86.8293H109.049V85.2683H110.61ZM112.171 85.2683V86.8293H110.61V85.2683H112.171ZM113.732 85.2683V86.8293H112.171V85.2683H113.732ZM115.293 86.8293V88.3902H113.732V86.8293H115.293ZM115.293 85.2683V86.8293H113.732V85.2683H115.293ZM116.854 86.8293V88.3902H115.293V86.8293H116.854ZM116.854 88.3902V89.9512H115.293V88.3902H116.854ZM118.415 88.3902V89.9512H116.854V88.3902H118.415ZM105.927 97.7561V99.3171H104.366V97.7561H105.927ZM104.366 99.3171V100.878H102.805V99.3171H104.366ZM102.805 99.3171V100.878H101.244V99.3171H102.805ZM102.805 97.7561V99.3171H101.244V97.7561H102.805ZM101.244 97.7561V99.3171H99.6829V97.7561H101.244ZM101.244 96.1951V97.7561H99.6829V96.1951H101.244ZM101.244 94.6341V96.1951H99.6829V94.6341H101.244ZM99.6829 94.6341V96.1951H98.122V94.6341H99.6829ZM99.6829 93.0732V94.6341H98.122V93.0732H99.6829ZM99.6829 91.5122V93.0732H98.122V91.5122H99.6829ZM101.244 91.5122V93.0732H99.6829V91.5122H101.244ZM102.805 91.5122V93.0732H101.244V91.5122H102.805ZM104.366 91.5122V93.0732H102.805V91.5122H104.366ZM104.366 93.0732V94.6341H102.805V93.0732H104.366ZM105.927 93.0732V94.6341H104.366V93.0732H105.927ZM105.927 91.5122V93.0732H104.366V91.5122H105.927ZM105.927 94.6341V96.1951H104.366V94.6341H105.927ZM105.927 96.1951V97.7561H104.366V96.1951H105.927ZM107.488 96.1951V97.7561H105.927V96.1951H107.488ZM107.488 94.6341V96.1951H105.927V94.6341H107.488ZM104.366 96.1951V97.7561H102.805V96.1951H104.366ZM104.366 97.7561V99.3171H102.805V97.7561H104.366ZM104.366 94.6341V96.1951H102.805V94.6341H104.366ZM102.805 94.6341V96.1951H101.244V94.6341H102.805ZM102.805 96.1951V97.7561H101.244V96.1951H102.805ZM102.805 93.0732V94.6341H101.244V93.0732H102.805ZM101.244 93.0732V94.6341H99.6829V93.0732H101.244ZM101.244 89.9512V91.5122H99.6829V89.9512H101.244ZM101.244 88.3902V89.9512H99.6829V88.3902H101.244ZM102.805 88.3902V89.9512H101.244V88.3902H102.805ZM102.805 86.8293V88.3902H101.244V86.8293H102.805ZM102.805 85.2683V86.8293H101.244V85.2683H102.805ZM104.366 85.2683V86.8293H102.805V85.2683H104.366ZM104.366 83.7073V85.2683H102.805V83.7073H104.366ZM105.927 83.7073V85.2683H104.366V83.7073H105.927ZM105.927 85.2683V86.8293H104.366V85.2683H105.927ZM105.927 86.8293V88.3902H104.366V86.8293H105.927ZM104.366 86.8293V88.3902H102.805V86.8293H104.366ZM104.366 88.3902V89.9512H102.805V88.3902H104.366ZM102.805 89.9512V91.5122H101.244V89.9512H102.805ZM104.366 89.9512V91.5122H102.805V89.9512H104.366ZM105.927 89.9512V91.5122H104.366V89.9512H105.927ZM105.927 88.3902V89.9512H104.366V88.3902H105.927ZM107.488 88.3902V89.9512H105.927V88.3902H107.488ZM107.488 89.9512V91.5122H105.927V89.9512H107.488ZM109.049 88.3902V89.9512H107.488V88.3902H109.049ZM109.049 86.8293V88.3902H107.488V86.8293H109.049ZM107.488 86.8293V88.3902H105.927V86.8293H107.488ZM113.732 82.1463V83.7073H112.171V82.1463H113.732ZM113.732 80.5854V82.1463H112.171V80.5854H113.732ZM113.732 79.0244V80.5854H112.171V79.0244H113.732ZM112.171 79.0244V80.5854H110.61V79.0244H112.171ZM112.171 80.5854V82.1463H110.61V80.5854H112.171ZM112.171 82.1463V83.7073H110.61V82.1463H112.171ZM110.61 82.1463V83.7073H109.049V82.1463H110.61ZM109.049 82.1463V83.7073H107.488V82.1463H109.049ZM109.049 80.5854V82.1463H107.488V80.5854H109.049ZM107.488 80.5854V82.1463H105.927V80.5854H107.488ZM107.488 79.0244V80.5854H105.927V79.0244H107.488ZM107.488 82.1463V83.7073H105.927V82.1463H107.488ZM110.61 80.5854V82.1463H109.049V80.5854H110.61ZM110.61 79.0244V80.5854H109.049V79.0244H110.61ZM110.61 77.4634V79.0244H109.049V77.4634H110.61ZM109.049 79.0244V80.5854H107.488V79.0244H109.049ZM112.171 77.4634V79.0244H110.61V77.4634H112.171ZM110.61 75.9024V77.4634H109.049V75.9024H110.61ZM109.049 77.4634V79.0244H107.488V77.4634H109.049ZM105.927 79.0244V80.5854H104.366V79.0244H105.927ZM105.927 77.4634V79.0244H104.366V77.4634H105.927ZM107.488 77.4634V79.0244H105.927V77.4634H107.488ZM109.049 75.9024V77.4634H107.488V75.9024H109.049ZM107.488 75.9024V77.4634H105.927V75.9024H107.488ZM105.927 75.9024V77.4634H104.366V75.9024H105.927ZM104.366 77.4634V79.0244H102.805V77.4634H104.366ZM104.366 75.9024V77.4634H102.805V75.9024H104.366ZM104.366 74.3415V75.9024H102.805V74.3415H104.366ZM104.366 72.7805V74.3415H102.805V72.7805H104.366ZM104.366 71.2195V72.7805H102.805V71.2195H104.366ZM105.927 71.2195V72.7805H104.366V71.2195H105.927ZM107.488 71.2195V72.7805H105.927V71.2195H107.488ZM109.049 71.2195V72.7805H107.488V71.2195H109.049ZM110.61 71.2195V72.7805H109.049V71.2195H110.61ZM112.171 71.2195V72.7805H110.61V71.2195H112.171ZM110.61 72.7805V74.3415H109.049V72.7805H110.61ZM109.049 72.7805V74.3415H107.488V72.7805H109.049ZM107.488 72.7805V74.3415H105.927V72.7805H107.488ZM107.488 74.3415V75.9024H105.927V74.3415H107.488ZM109.049 74.3415V75.9024H107.488V74.3415H109.049ZM105.927 72.7805V74.3415H104.366V72.7805H105.927ZM105.927 74.3415V75.9024H104.366V74.3415H105.927ZM115.293 82.1463V83.7073H113.732V82.1463H115.293ZM115.293 80.5854V82.1463H113.732V80.5854H115.293ZM115.293 79.0244V80.5854H113.732V79.0244H115.293ZM115.293 77.4634V79.0244H113.732V77.4634H115.293ZM116.854 77.4634V79.0244H115.293V77.4634H116.854ZM116.854 75.9024V77.4634H115.293V75.9024H116.854ZM118.415 75.9024V77.4634H116.854V75.9024H118.415ZM118.415 74.3415V75.9024H116.854V74.3415H118.415ZM119.976 74.3415V75.9024H118.415V74.3415H119.976ZM121.537 74.3415V75.9024H119.976V74.3415H121.537ZM123.098 74.3415V75.9024H121.537V74.3415H123.098ZM123.098 72.7805V74.3415H121.537V72.7805H123.098ZM124.659 72.7805V74.3415H123.098V72.7805H124.659ZM124.659 74.3415V75.9024H123.098V74.3415H124.659ZM123.098 75.9024V77.4634H121.537V75.9024H123.098ZM123.098 77.4634V79.0244H121.537V77.4634H123.098ZM121.537 77.4634V79.0244H119.976V77.4634H121.537ZM121.537 79.0244V80.5854H119.976V79.0244H121.537ZM119.976 79.0244V80.5854H118.415V79.0244H119.976ZM119.976 80.5854V82.1463H118.415V80.5854H119.976ZM118.415 80.5854V82.1463H116.854V80.5854H118.415ZM118.415 82.1463V83.7073H116.854V82.1463H118.415ZM116.854 82.1463V83.7073H115.293V82.1463H116.854ZM116.854 80.5854V82.1463H115.293V80.5854H116.854ZM116.854 79.0244V80.5854H115.293V79.0244H116.854ZM118.415 79.0244V80.5854H116.854V79.0244H118.415ZM118.415 77.4634V79.0244H116.854V77.4634H118.415ZM119.976 77.4634V79.0244H118.415V77.4634H119.976ZM121.537 75.9024V77.4634H119.976V75.9024H121.537ZM119.976 75.9024V77.4634H118.415V75.9024H119.976ZM119.976 72.7805V74.3415H118.415V72.7805H119.976ZM118.415 72.7805V74.3415H116.854V72.7805H118.415ZM118.415 71.2195V72.7805H116.854V71.2195H118.415ZM116.854 71.2195V72.7805H115.293V71.2195H116.854ZM116.854 69.6585V71.2195H115.293V69.6585H116.854ZM115.293 69.6585V71.2195H113.732V69.6585H115.293ZM113.732 69.6585V71.2195H112.171V69.6585H113.732ZM124.659 71.2195V72.7805H123.098V71.2195H124.659ZM123.098 71.2195V72.7805H121.537V71.2195H123.098ZM121.537 71.2195V72.7805H119.976V71.2195H121.537ZM121.537 72.7805V74.3415H119.976V72.7805H121.537ZM121.537 69.6585V71.2195H119.976V69.6585H121.537ZM123.098 69.6585V71.2195H121.537V69.6585H123.098ZM123.098 68.0976V69.6585H121.537V68.0976H123.098ZM121.537 68.0976V69.6585H119.976V68.0976H121.537ZM119.976 68.0976V69.6585H118.415V68.0976H119.976ZM119.976 66.5366V68.0976H118.415V66.5366H119.976ZM121.537 66.5366V68.0976H119.976V66.5366H121.537ZM118.415 66.5366V68.0976H116.854V66.5366H118.415ZM118.415 64.9756V66.5366H116.854V64.9756H118.415ZM116.854 64.9756V66.5366H115.293V64.9756H116.854ZM115.293 64.9756V66.5366H113.732V64.9756H115.293ZM113.732 64.9756V66.5366H112.171V64.9756H113.732ZM113.732 66.5366V68.0976H112.171V66.5366H113.732ZM112.171 66.5366V68.0976H110.61V66.5366H112.171ZM110.61 66.5366V68.0976H109.049V66.5366H110.61ZM110.61 64.9756V66.5366H109.049V64.9756H110.61ZM112.171 64.9756V66.5366H110.61V64.9756H112.171ZM109.049 66.5366V68.0976H107.488V66.5366H109.049ZM109.049 68.0976V69.6585H107.488V68.0976H109.049ZM107.488 68.0976V69.6585H105.927V68.0976H107.488ZM107.488 66.5366V68.0976H105.927V66.5366H107.488ZM105.927 68.0976V69.6585H104.366V68.0976H105.927ZM105.927 69.6585V71.2195H104.366V69.6585H105.927ZM107.488 69.6585V71.2195H105.927V69.6585H107.488ZM109.049 69.6585V71.2195H107.488V69.6585H109.049ZM110.61 69.6585V71.2195H109.049V69.6585H110.61ZM112.171 69.6585V71.2195H110.61V69.6585H112.171ZM112.171 68.0976V69.6585H110.61V68.0976H112.171ZM110.61 68.0976V69.6585H109.049V68.0976H110.61ZM113.732 68.0976V69.6585H112.171V68.0976H113.732ZM115.293 68.0976V69.6585H113.732V68.0976H115.293ZM116.854 68.0976V69.6585H115.293V68.0976H116.854ZM118.415 68.0976V69.6585H116.854V68.0976H118.415ZM118.415 69.6585V71.2195H116.854V69.6585H118.415ZM119.976 69.6585V71.2195H118.415V69.6585H119.976ZM119.976 71.2195V72.7805H118.415V71.2195H119.976ZM116.854 66.5366V68.0976H115.293V66.5366H116.854ZM115.293 66.5366V68.0976H113.732V66.5366H115.293ZM110.61 74.3415V75.9024H109.049V74.3415H110.61ZM112.171 88.3902V89.9512H110.61V88.3902H112.171ZM113.732 89.9512V91.5122H112.171V89.9512H113.732ZM115.293 91.5122V93.0732H113.732V91.5122H115.293ZM116.854 93.0732V94.6341H115.293V93.0732H116.854ZM123.098 100.878V102.439H121.537V100.878H123.098ZM124.659 102.439V104H123.098V102.439H124.659ZM124.659 86.8293V88.3902H123.098V86.8293H124.659ZM124.659 85.2683V86.8293H123.098V85.2683H124.659ZM124.659 83.7073V85.2683H123.098V83.7073H124.659ZM121.537 88.3902V89.9512H119.976V88.3902H121.537ZM123.098 88.3902V89.9512H121.537V88.3902H123.098ZM123.098 86.8293V88.3902H121.537V86.8293H123.098ZM104.366 100.878V102.439H102.805V100.878H104.366Z" fill="white"/>
<g filter="url(#filter0_d_17_8)">
<path d="M37.439 71.9268V68.8049H40.561V71.9268H37.439ZM37.439 75.0488V71.9268H40.561V75.0488H37.439ZM40.561 75.0488V71.9268H43.6829V75.0488H40.561ZM43.6829 75.0488V71.9268H46.8049V75.0488H43.6829ZM46.8049 75.0488V71.9268H49.9268V75.0488H46.8049ZM46.8049 71.9268V68.8049H49.9268V71.9268H46.8049ZM49.9268 71.9268V68.8049H53.0488V71.9268H49.9268ZM43.6829 71.9268V68.8049H46.8049V71.9268H43.6829ZM40.561 71.9268V68.8049H43.6829V71.9268H40.561ZM49.9268 75.0488V71.9268H53.0488V75.0488H49.9268ZM49.9268 78.1707V75.0488H53.0488V78.1707H49.9268ZM46.8049 78.1707V75.0488H49.9268V78.1707H46.8049ZM43.6829 78.1707V75.0488H46.8049V78.1707H43.6829ZM40.561 78.1707V75.0488H43.6829V78.1707H40.561ZM40.561 81.2927V78.1707H43.6829V81.2927H40.561ZM43.6829 81.2927V78.1707H46.8049V81.2927H43.6829ZM46.8049 81.2927V78.1707H49.9268V81.2927H46.8049ZM49.9268 81.2927V78.1707H53.0488V81.2927H49.9268ZM53.0488 81.2927V78.1707H56.1707V81.2927H53.0488ZM53.0488 78.1707V75.0488H56.1707V78.1707H53.0488ZM49.9268 84.4146V81.2927H53.0488V84.4146H49.9268ZM46.8049 84.4146V81.2927H49.9268V84.4146H46.8049ZM43.6829 84.4146V81.2927H46.8049V84.4146H43.6829ZM43.6829 87.5366V84.4146H46.8049V87.5366H43.6829ZM46.8049 87.5366V84.4146H49.9268V87.5366H46.8049ZM49.9268 87.5366V84.4146H53.0488V87.5366H49.9268ZM53.0488 87.5366V84.4146H56.1707V87.5366H53.0488ZM53.0488 84.4146V81.2927H56.1707V84.4146H53.0488ZM56.1707 84.4146V81.2927H59.2927V84.4146H56.1707ZM56.1707 87.5366V84.4146H59.2927V87.5366H56.1707ZM49.9268 90.6585V87.5366H53.0488V90.6585H49.9268ZM46.8049 90.6585V87.5366H49.9268V90.6585H46.8049ZM46.8049 93.7805V90.6585H49.9268V93.7805H46.8049ZM49.9268 93.7805V90.6585H53.0488V93.7805H49.9268ZM53.0488 93.7805V90.6585H56.1707V93.7805H53.0488ZM56.1707 93.7805V90.6585H59.2927V93.7805H56.1707ZM59.2927 93.7805V90.6585H62.4146V93.7805H59.2927ZM59.2927 90.6585V87.5366H62.4146V90.6585H59.2927ZM56.1707 90.6585V87.5366H59.2927V90.6585H56.1707ZM53.0488 90.6585V87.5366H56.1707V90.6585H53.0488ZM56.1707 96.9024V93.7805H59.2927V96.9024H56.1707ZM59.2927 96.9024V93.7805H62.4146V96.9024H59.2927ZM59.2927 100.024V96.9024H62.4146V100.024H59.2927ZM56.1707 100.024V96.9024H59.2927V100.024H56.1707ZM53.0488 100.024V96.9024H56.1707V100.024H53.0488ZM49.9268 100.024V96.9024H53.0488V100.024H49.9268ZM49.9268 96.9024V93.7805H53.0488V96.9024H49.9268ZM53.0488 96.9024V93.7805H56.1707V96.9024H53.0488ZM62.4146 96.9024V93.7805H65.5366V96.9024H62.4146ZM65.5366 96.9024V93.7805H68.6585V96.9024H65.5366ZM65.5366 100.024V96.9024H68.6585V100.024H65.5366ZM68.6585 100.024V96.9024H71.7805V100.024H68.6585ZM62.4146 100.024V96.9024H65.5366V100.024H62.4146ZM68.6585 96.9024V93.7805H71.7805V96.9024H68.6585ZM68.6585 93.7805V90.6585H71.7805V93.7805H68.6585ZM81.1463 84.4146V81.2927H84.2683V84.4146H81.1463ZM81.1463 87.5366V84.4146H84.2683V87.5366H81.1463ZM78.0244 87.5366V84.4146H81.1463V87.5366H78.0244ZM74.9024 90.6585V87.5366H78.0244V90.6585H74.9024ZM71.7805 90.6585V87.5366H74.9024V90.6585H71.7805ZM68.6585 90.6585V87.5366H71.7805V90.6585H68.6585ZM74.9024 87.5366V84.4146H78.0244V87.5366H74.9024ZM78.0244 84.4146V81.2927H81.1463V84.4146H78.0244ZM74.9024 84.4146V81.2927H78.0244V84.4146H74.9024ZM71.7805 84.4146V81.2927H74.9024V84.4146H71.7805ZM71.7805 87.5366V84.4146H74.9024V87.5366H71.7805ZM78.0244 81.2927V78.1707H81.1463V81.2927H78.0244ZM74.9024 81.2927V78.1707H78.0244V81.2927H74.9024ZM74.9024 78.1707V75.0488H78.0244V78.1707H74.9024ZM78.0244 78.1707V75.0488H81.1463V78.1707H78.0244ZM78.0244 75.0488V71.9268H81.1463V75.0488H78.0244ZM81.1463 75.0488V71.9268H84.2683V75.0488H81.1463ZM81.1463 71.9268V68.8049H84.2683V71.9268H81.1463ZM78.0244 71.9268V68.8049H81.1463V71.9268H78.0244ZM84.2683 71.9268V68.8049H87.3902V71.9268H84.2683ZM87.3902 71.9268V68.8049H90.5122V71.9268H87.3902ZM87.3902 75.0488V71.9268H90.5122V75.0488H87.3902ZM90.5122 75.0488V71.9268H93.6341V75.0488H90.5122ZM90.5122 71.9268V68.8049H93.6341V71.9268H90.5122ZM87.3902 78.1707V75.0488H90.5122V78.1707H87.3902ZM87.3902 81.2927V78.1707H90.5122V81.2927H87.3902ZM84.2683 81.2927V78.1707H87.3902V81.2927H84.2683ZM84.2683 78.1707V75.0488H87.3902V78.1707H84.2683ZM84.2683 75.0488V71.9268H87.3902V75.0488H84.2683ZM81.1463 78.1707V75.0488H84.2683V78.1707H81.1463ZM84.2683 84.4146V81.2927H87.3902V84.4146H84.2683ZM81.1463 81.2927V78.1707H84.2683V81.2927H81.1463ZM84.2683 87.5366V84.4146H87.3902V87.5366H84.2683ZM81.1463 90.6585V87.5366H84.2683V90.6585H81.1463ZM81.1463 93.7805V90.6585H84.2683V93.7805H81.1463ZM78.0244 93.7805V90.6585H81.1463V93.7805H78.0244ZM78.0244 90.6585V87.5366H81.1463V90.6585H78.0244ZM78.0244 96.9024V93.7805H81.1463V96.9024H78.0244ZM78.0244 100.024V96.9024H81.1463V100.024H78.0244ZM74.9024 100.024V96.9024H78.0244V100.024H74.9024ZM71.7805 100.024V96.9024H74.9024V100.024H71.7805ZM71.7805 96.9024V93.7805H74.9024V96.9024H71.7805ZM71.7805 93.7805V90.6585H74.9024V93.7805H71.7805ZM74.9024 93.7805V90.6585H78.0244V93.7805H74.9024ZM74.9024 96.9024V93.7805H78.0244V96.9024H74.9024ZM53.0488 103.146V100.024H56.1707V103.146H53.0488ZM53.0488 106.268V103.146H56.1707V106.268H53.0488ZM56.1707 106.268V103.146H59.2927V106.268H56.1707ZM56.1707 109.39V106.268H59.2927V109.39H56.1707ZM56.1707 112.512V109.39H59.2927V112.512H56.1707ZM59.2927 112.512V109.39H62.4146V112.512H59.2927ZM59.2927 115.634V112.512H62.4146V115.634H59.2927ZM59.2927 118.756V115.634H62.4146V118.756H59.2927ZM62.4146 118.756V115.634H65.5366V118.756H62.4146ZM65.5366 118.756V115.634H68.6585V118.756H65.5366ZM68.6585 118.756V115.634H71.7805V118.756H68.6585ZM68.6585 115.634V112.512H71.7805V115.634H68.6585ZM65.5366 115.634V112.512H68.6585V115.634H65.5366ZM62.4146 115.634V112.512H65.5366V115.634H62.4146ZM65.5366 112.512V109.39H68.6585V112.512H65.5366ZM68.6585 112.512V109.39H71.7805V112.512H68.6585ZM71.7805 112.512V109.39H74.9024V112.512H71.7805ZM71.7805 109.39V106.268H74.9024V109.39H71.7805ZM71.7805 106.268V103.146H74.9024V106.268H71.7805ZM74.9024 106.268V103.146H78.0244V106.268H74.9024ZM74.9024 103.146V100.024H78.0244V103.146H74.9024ZM71.7805 103.146V100.024H74.9024V103.146H71.7805ZM68.6585 103.146V100.024H71.7805V103.146H68.6585ZM68.6585 106.268V103.146H71.7805V106.268H68.6585ZM68.6585 109.39V106.268H71.7805V109.39H68.6585ZM65.5366 109.39V106.268H68.6585V109.39H65.5366ZM62.4146 112.512V109.39H65.5366V112.512H62.4146ZM62.4146 109.39V106.268H65.5366V109.39H62.4146ZM62.4146 106.268V103.146H65.5366V106.268H62.4146ZM65.5366 106.268V103.146H68.6585V106.268H65.5366ZM62.4146 103.146V100.024H65.5366V103.146H62.4146ZM59.2927 103.146V100.024H62.4146V103.146H59.2927ZM56.1707 103.146V100.024H59.2927V103.146H56.1707ZM59.2927 106.268V103.146H62.4146V106.268H59.2927ZM59.2927 109.39V106.268H62.4146V109.39H59.2927ZM65.5366 103.146V100.024H68.6585V103.146H65.5366ZM37.439 53.1341H40.561V56.2561H37.439V53.1341ZM37.439 50.0122H40.561V53.1341H37.439V50.0122ZM40.561 50.0122H43.6829V53.1341H40.561V50.0122ZM43.6829 50.0122H46.8049V53.1341H43.6829V50.0122ZM46.8049 50.0122H49.9268V53.1341H46.8049V50.0122ZM46.8049 53.1341H49.9268V56.2561H46.8049V53.1341ZM49.9268 53.1341H53.0488V56.2561H49.9268V53.1341ZM43.6829 53.1341H46.8049V56.2561H43.6829V53.1341ZM40.561 53.1341H43.6829V56.2561H40.561V53.1341ZM49.9268 50.0122H53.0488V53.1341H49.9268V50.0122ZM49.9268 46.8902H53.0488V50.0122H49.9268V46.8902ZM46.8049 46.8902H49.9268V50.0122H46.8049V46.8902ZM43.6829 46.8902H46.8049V50.0122H43.6829V46.8902ZM40.561 46.8902H43.6829V50.0122H40.561V46.8902ZM40.561 43.7683H43.6829V46.8902H40.561V43.7683ZM43.6829 43.7683H46.8049V46.8902H43.6829V43.7683ZM46.8049 43.7683H49.9268V46.8902H46.8049V43.7683ZM49.9268 43.7683H53.0488V46.8902H49.9268V43.7683ZM53.0488 43.7683H56.1707V46.8902H53.0488V43.7683ZM53.0488 46.8902H56.1707V50.0122H53.0488V46.8902ZM49.9268 40.6463H53.0488V43.7683H49.9268V40.6463ZM46.8049 40.6463H49.9268V43.7683H46.8049V40.6463ZM43.6829 40.6463H46.8049V43.7683H43.6829V40.6463ZM43.6829 37.5244H46.8049V40.6463H43.6829V37.5244ZM46.8049 37.5244H49.9268V40.6463H46.8049V37.5244ZM49.9268 37.5244H53.0488V40.6463H49.9268V37.5244ZM53.0488 37.5244H56.1707V40.6463H53.0488V37.5244ZM53.0488 40.6463H56.1707V43.7683H53.0488V40.6463ZM56.1707 40.6463H59.2927V43.7683H56.1707V40.6463ZM56.1707 37.5244H59.2927V40.6463H56.1707V37.5244ZM49.9268 34.4024H53.0488V37.5244H49.9268V34.4024ZM46.8049 34.4024H49.9268V37.5244H46.8049V34.4024ZM46.8049 31.2805H49.9268V34.4024H46.8049V31.2805ZM49.9268 31.2805H53.0488V34.4024H49.9268V31.2805ZM53.0488 31.2805H56.1707V34.4024H53.0488V31.2805ZM56.1707 31.2805H59.2927V34.4024H56.1707V31.2805ZM59.2927 31.2805H62.4146V34.4024H59.2927V31.2805ZM59.2927 34.4024H62.4146V37.5244H59.2927V34.4024ZM56.1707 34.4024H59.2927V37.5244H56.1707V34.4024ZM53.0488 34.4024H56.1707V37.5244H53.0488V34.4024ZM56.1707 28.1585H59.2927V31.2805H56.1707V28.1585ZM59.2927 28.1585H62.4146V31.2805H59.2927V28.1585ZM59.2927 25.0366H62.4146V28.1585H59.2927V25.0366ZM56.1707 25.0366H59.2927V28.1585H56.1707V25.0366ZM53.0488 25.0366H56.1707V28.1585H53.0488V25.0366ZM49.9268 25.0366H53.0488V28.1585H49.9268V25.0366ZM49.9268 28.1585H53.0488V31.2805H49.9268V28.1585ZM53.0488 28.1585H56.1707V31.2805H53.0488V28.1585ZM62.4146 28.1585H65.5366V31.2805H62.4146V28.1585ZM65.5366 28.1585H68.6585V31.2805H65.5366V28.1585ZM65.5366 25.0366H68.6585V28.1585H65.5366V25.0366ZM68.6585 25.0366H71.7805V28.1585H68.6585V25.0366ZM62.4146 25.0366H65.5366V28.1585H62.4146V25.0366ZM68.6585 28.1585H71.7805V31.2805H68.6585V28.1585ZM68.6585 31.2805H71.7805V34.4024H68.6585V31.2805ZM81.1463 40.6463H84.2683V43.7683H81.1463V40.6463ZM81.1463 37.5244H84.2683V40.6463H81.1463V37.5244ZM78.0244 37.5244H81.1463V40.6463H78.0244V37.5244ZM74.9024 34.4024H78.0244V37.5244H74.9024V34.4024ZM71.7805 34.4024H74.9024V37.5244H71.7805V34.4024ZM68.6585 34.4024H71.7805V37.5244H68.6585V34.4024ZM74.9024 37.5244H78.0244V40.6463H74.9024V37.5244ZM78.0244 40.6463H81.1463V43.7683H78.0244V40.6463ZM74.9024 40.6463H78.0244V43.7683H74.9024V40.6463ZM71.7805 40.6463H74.9024V43.7683H71.7805V40.6463ZM71.7805 37.5244H74.9024V40.6463H71.7805V37.5244ZM78.0244 43.7683H81.1463V46.8902H78.0244V43.7683ZM74.9024 43.7683H78.0244V46.8902H74.9024V43.7683ZM74.9024 46.8902H78.0244V50.0122H74.9024V46.8902ZM78.0244 46.8902H81.1463V50.0122H78.0244V46.8902ZM78.0244 50.0122H81.1463V53.1341H78.0244V50.0122ZM81.1463 50.0122H84.2683V53.1341H81.1463V50.0122ZM81.1463 53.1341H84.2683V56.2561H81.1463V53.1341ZM78.0244 53.1341H81.1463V56.2561H78.0244V53.1341ZM84.2683 53.1341H87.3902V56.2561H84.2683V53.1341ZM87.3902 53.1341H90.5122V56.2561H87.3902V53.1341ZM87.3902 50.0122H90.5122V53.1341H87.3902V50.0122ZM90.5122 50.0122H93.6341V53.1341H90.5122V50.0122ZM90.5122 53.1341H93.6341V56.2561H90.5122V53.1341ZM87.3902 46.8902H90.5122V50.0122H87.3902V46.8902ZM87.3902 43.7683H90.5122V46.8902H87.3902V43.7683ZM84.2683 43.7683H87.3902V46.8902H84.2683V43.7683ZM84.2683 46.8902H87.3902V50.0122H84.2683V46.8902ZM84.2683 50.0122H87.3902V53.1341H84.2683V50.0122ZM81.1463 46.8902H84.2683V50.0122H81.1463V46.8902ZM84.2683 40.6463H87.3902V43.7683H84.2683V40.6463ZM81.1463 43.7683H84.2683V46.8902H81.1463V43.7683ZM84.2683 37.5244H87.3902V40.6463H84.2683V37.5244ZM81.1463 34.4024H84.2683V37.5244H81.1463V34.4024ZM81.1463 31.2805H84.2683V34.4024H81.1463V31.2805ZM78.0244 31.2805H81.1463V34.4024H78.0244V31.2805ZM78.0244 34.4024H81.1463V37.5244H78.0244V34.4024ZM78.0244 28.1585H81.1463V31.2805H78.0244V28.1585ZM78.0244 25.0366H81.1463V28.1585H78.0244V25.0366ZM74.9024 25.0366H78.0244V28.1585H74.9024V25.0366ZM71.7805 25.0366H74.9024V28.1585H71.7805V25.0366ZM71.7805 28.1585H74.9024V31.2805H71.7805V28.1585ZM71.7805 31.2805H74.9024V34.4024H71.7805V31.2805ZM74.9024 31.2805H78.0244V34.4024H74.9024V31.2805ZM74.9024 28.1585H78.0244V31.2805H74.9024V28.1585ZM53.0488 21.9146H56.1707V25.0366H53.0488V21.9146ZM53.0488 18.7927H56.1707V21.9146H53.0488V18.7927ZM56.1707 18.7927H59.2927V21.9146H56.1707V18.7927ZM56.1707 15.6707H59.2927V18.7927H56.1707V15.6707ZM56.1707 12.5488H59.2927V15.6707H56.1707V12.5488ZM59.2927 12.5488H62.4146V15.6707H59.2927V12.5488ZM59.2927 9.42683H62.4146V12.5488H59.2927V9.42683ZM59.2927 6.30488H62.4146V9.42683H59.2927V6.30488ZM62.4146 6.30488H65.5366L65.5366 9.42683H62.4146V6.30488ZM65.5366 6.30488H68.6585L68.6585 9.42683H65.5366L65.5366 6.30488ZM68.6585 6.30488H71.7805L71.7805 9.42683H68.6585L68.6585 6.30488ZM68.6585 9.42683H71.7805V12.5488H68.6585V9.42683ZM65.5366 9.42683H68.6585V12.5488H65.5366V9.42683ZM62.4146 9.42683H65.5366V12.5488H62.4146V9.42683ZM65.5366 12.5488H68.6585V15.6707H65.5366V12.5488ZM68.6585 12.5488H71.7805V15.6707H68.6585V12.5488ZM71.7805 12.5488H74.9024V15.6707H71.7805V12.5488ZM71.7805 15.6707H74.9024V18.7927H71.7805V15.6707ZM71.7805 18.7927H74.9024V21.9146H71.7805V18.7927ZM74.9024 18.7927H78.0244V21.9146H74.9024V18.7927ZM74.9024 21.9146H78.0244V25.0366H74.9024V21.9146ZM71.7805 21.9146H74.9024V25.0366H71.7805V21.9146ZM68.6585 21.9146H71.7805V25.0366H68.6585V21.9146ZM68.6585 18.7927H71.7805V21.9146H68.6585V18.7927ZM68.6585 15.6707H71.7805V18.7927H68.6585V15.6707ZM65.5366 15.6707H68.6585V18.7927H65.5366V15.6707ZM62.4146 12.5488H65.5366V15.6707H62.4146V12.5488ZM62.4146 15.6707H65.5366V18.7927H62.4146V15.6707ZM62.4146 18.7927H65.5366V21.9146H62.4146V18.7927ZM65.5366 18.7927H68.6585V21.9146H65.5366V18.7927ZM62.4146 21.9146H65.5366V25.0366H62.4146V21.9146ZM59.2927 21.9146H62.4146V25.0366H59.2927V21.9146ZM56.1707 21.9146H59.2927V25.0366H56.1707V21.9146ZM59.2927 18.7927H62.4146V21.9146H59.2927V18.7927ZM59.2927 15.6707H62.4146V18.7927H59.2927V15.6707ZM65.5366 21.9146H68.6585V25.0366H65.5366V21.9146Z" fill="white"/>
</g>
<defs>
<filter id="filter0_d_17_8" x="33.439" y="6.30488" width="64.1953" height="120.451" filterUnits="userSpaceOnUse" color-interpolation-filters="sRGB">
<feFlood flood-opacity="0" result="BackgroundImageFix"/>
<feColorMatrix in="SourceAlpha" type="matrix" values="0 0 0 0 0 0 0 0 0 0 0 0 0 0 0 0 0 0 127 0" result="hardAlpha"/>
<feOffset dy="4"/>
<feGaussianBlur stdDeviation="2"/>
<feComposite in2="hardAlpha" operator="out"/>
<feColorMatrix type="matrix" values="0 0 0 0 1 0 0 0 0 0 0 0 0 0 0 0 0 0 0.25 0"/>
<feBlend mode="normal" in2="BackgroundImageFix" result="effect1_dropShadow_17_8"/>
<feBlend mode="normal" in="SourceGraphic" in2="effect1_dropShadow_17_8" result="shape"/>
</filter>
</defs>
</svg>
